<svg width="24" height="24" viewBox="0 0 24 24" fill="none" xmlns="http://www.w3.org/2000/svg">
<path d="M7.07776 12C7.07776 9.55484 8.86078 7.52614 11.1976 7.14315C11.6365 7.07121 11.9996 7.43869 11.9996 7.88346C11.9996 8.60094 12.8671 8.96026 13.3744 8.45292L16.2064 5.62097C16.5969 5.23044 16.5969 4.59728 16.2064 4.20675L13.3704 1.37079C12.8646 0.864933 11.9996 1.2232 11.9996 1.93859C11.9996 2.38207 11.6389 2.73794 11.197 2.77588C6.45956 3.18269 2.74121 7.15713 2.74121 12C2.74121 13.9683 3.35577 15.7929 4.4031 17.293C4.73312 17.7656 5.40486 17.7839 5.81251 17.3763L7.50816 15.6807C7.867 15.3218 7.88934 14.7553 7.65108 14.3072C7.28515 13.6191 7.07776 12.8338 7.07776 12ZM19.5962 6.70704C19.2661 6.23436 18.5944 6.21607 18.1868 6.62371L16.4911 8.31933C16.1323 8.67817 16.1099 9.2447 16.3482 9.69277C16.7141 10.3809 16.9215 11.1662 16.9215 12C16.9215 14.4452 15.1385 16.4739 12.8017 16.8568C12.3628 16.9288 11.9996 16.5613 11.9996 16.1165C11.9996 15.3991 11.1322 15.0397 10.6248 15.5471L7.79288 18.379C7.40236 18.7696 7.40236 19.4027 7.79288 19.7932L10.6288 22.6292C11.1347 23.1351 11.9996 22.7768 11.9996 22.0614C11.9996 21.6179 12.3604 21.2621 12.8022 21.2241C17.5397 20.8173 21.2581 16.8429 21.2581 12C21.2581 10.0317 20.6435 8.20713 19.5962 6.70704Z" fill="#5A3FC3"/>
</svg>
