<svg width="20" height="20" viewBox="0 0 20 20" fill="none" xmlns="http://www.w3.org/2000/svg">
<path d="M12.9878 1.18192C12.6262 0.799144 12 1.06055 12 1.5927V4.85092C12 6.21396 13.0936 7.34361 14.4254 7.34361C15.2632 7.35294 16.4274 7.35294 17.424 7.35294C17.9267 7.35294 18.1913 6.72744 17.8385 6.354C16.5685 5.0003 14.2931 2.56363 12.9878 1.18192Z" fill="#5A3FC3"/>
<path d="M17.1579 8.371H14.7242C12.7284 8.371 11.1032 6.634 11.1032 4.501V1.9C11.1032 1.405 10.7242 1 10.2611 1H6.69053C4.09684 1 2 2.8 2 6.013V13.987C2 17.2 4.09684 19 6.69053 19H13.3095C15.9032 19 18 17.2 18 13.987V9.271C18 8.776 17.6211 8.371 17.1579 8.371ZM9.57895 15.175H6.21053C5.86526 15.175 5.57895 14.869 5.57895 14.5C5.57895 14.131 5.86526 13.825 6.21053 13.825H9.57895C9.92421 13.825 10.2105 14.131 10.2105 14.5C10.2105 14.869 9.92421 15.175 9.57895 15.175ZM11.2632 11.575H6.21053C5.86526 11.575 5.57895 11.269 5.57895 10.9C5.57895 10.531 5.86526 10.225 6.21053 10.225H11.2632C11.6084 10.225 11.8947 10.531 11.8947 10.9C11.8947 11.269 11.6084 11.575 11.2632 11.575Z" fill="#5A3FC3"/>
</svg>
