<svg width="24" height="24" viewBox="0 0 24 24" fill="none" xmlns="http://www.w3.org/2000/svg">
<path d="M6.75 21.375C6.75 21.5975 6.68402 21.815 6.5604 22C6.43679 22.185 6.26109 22.3292 6.05552 22.4144C5.84995 22.4995 5.62375 22.5218 5.40552 22.4784C5.1873 22.435 4.98684 22.3278 4.8295 22.1705C4.67217 22.0132 4.56503 21.8127 4.52162 21.5945C4.47821 21.3762 4.50049 21.15 4.58564 20.9445C4.67078 20.7389 4.81498 20.5632 4.99998 20.4396C5.18499 20.316 5.4025 20.25 5.625 20.25C5.92337 20.25 6.20952 20.3685 6.4205 20.5795C6.63147 20.7905 6.75 21.0766 6.75 21.375ZM8.25 17.625C8.0275 17.625 7.80999 17.691 7.62498 17.8146C7.43998 17.9382 7.29578 18.1139 7.21064 18.3195C7.12549 18.525 7.10321 18.7512 7.14662 18.9695C7.19003 19.1877 7.29717 19.3882 7.4545 19.5455C7.61184 19.7028 7.81229 19.81 8.03052 19.8534C8.24875 19.8968 8.47495 19.8745 8.68052 19.7894C8.88609 19.7042 9.06179 19.56 9.1854 19.375C9.30902 19.19 9.375 18.9725 9.375 18.75C9.375 18.4516 9.25647 18.1655 9.0455 17.9545C8.83452 17.7435 8.54837 17.625 8.25 17.625ZM2.625 17.25C2.4025 17.25 2.18499 17.316 1.99998 17.4396C1.81498 17.5632 1.67078 17.7389 1.58564 17.9445C1.50049 18.15 1.47821 18.3762 1.52162 18.5945C1.56503 18.8127 1.67217 19.0132 1.82951 19.1705C1.98684 19.3278 2.1873 19.435 2.40552 19.4784C2.62375 19.5218 2.84995 19.4995 3.05552 19.4144C3.26109 19.3292 3.43679 19.185 3.5604 19C3.68402 18.815 3.75 18.5975 3.75 18.375C3.75 18.0766 3.63147 17.7905 3.4205 17.5795C3.20952 17.3685 2.92337 17.25 2.625 17.25ZM6.375 15.75C6.375 15.5275 6.30902 15.31 6.1854 15.125C6.06179 14.94 5.88609 14.7958 5.68052 14.7106C5.47495 14.6255 5.24875 14.6032 5.03052 14.6466C4.8123 14.69 4.61184 14.7972 4.4545 14.9545C4.29717 15.1118 4.19003 15.3123 4.14662 15.5305C4.10321 15.7488 4.12549 15.975 4.21064 16.1805C4.29578 16.3861 4.43998 16.5618 4.62498 16.6854C4.80999 16.809 5.0275 16.875 5.25 16.875C5.54837 16.875 5.83452 16.7565 6.0455 16.5455C6.25647 16.3345 6.375 16.0484 6.375 15.75ZM23.25 3H20.5594C20.3624 2.99983 20.1674 3.03867 19.9856 3.1143C19.8038 3.18993 19.6387 3.30084 19.5 3.44063L16.8937 6.04688L5.0625 8.025C4.78956 8.06734 4.53404 8.18562 4.32515 8.36633C4.11626 8.54703 3.96243 8.78287 3.88125 9.04688C3.79866 9.30788 3.78907 9.5865 3.85352 9.85256C3.91797 10.1186 4.054 10.362 4.24688 10.5563L13.4438 19.7531C13.7222 20.0323 14.0994 20.1906 14.4938 20.1937C14.6498 20.1925 14.8048 20.1672 14.9531 20.1188C15.2171 20.0376 15.453 19.8837 15.6337 19.6749C15.8144 19.466 15.9327 19.2104 15.975 18.9375L17.9531 7.10625L20.5594 4.5H23.25C23.4489 4.5 23.6397 4.42098 23.7803 4.28033C23.921 4.13968 24 3.94891 24 3.75C24 3.55109 23.921 3.36032 23.7803 3.21967C23.6397 3.07902 23.4489 3 23.25 3Z" fill="#5A3FC3"/>
</svg>
