<svg width="30" height="30" viewBox="0 0 30 30" fill="none" xmlns="http://www.w3.org/2000/svg">
<path d="M26.25 10.4375H26.1328C26.0376 10.1845 25.8889 9.95505 25.6967 9.76492C25.5045 9.57478 25.2735 9.42845 25.0195 9.33594L15.6445 5.92578C15.2283 5.77344 14.7717 5.77344 14.3555 5.92578L4.98047 9.33594C4.72646 9.42845 4.49546 9.57478 4.30331 9.76492C4.11115 9.95505 3.96238 10.1845 3.86719 10.4375H3.75C2.75639 10.4406 1.80436 10.8367 1.10176 11.5393C0.399171 12.2419 0.00309057 13.1939 0 14.1875L0 17C0.00309057 17.9936 0.399171 18.9456 1.10176 19.6482C1.80436 20.3508 2.75639 20.7469 3.75 20.75H4.35938C5.13281 22.4375 6.62109 23.9141 8.76562 25.1094C11.2383 26.4805 13.875 27.1016 14.6133 27.2539L15 27.2891L15.3867 27.2539C16.125 27.1016 18.7617 26.4805 21.2344 25.1094C23.3789 23.9141 24.8672 22.4375 25.6406 20.75H26.25C27.2436 20.7469 28.1956 20.3508 28.8982 19.6482C29.6008 18.9456 29.9969 17.9936 30 17V14.1875C29.9969 13.1939 29.6008 12.2419 28.8982 11.5393C28.1956 10.8367 27.2436 10.4406 26.25 10.4375ZM3.75 18.875C3.25272 18.875 2.77581 18.6775 2.42417 18.3258C2.07254 17.9742 1.875 17.4973 1.875 17V14.1875C1.875 13.6902 2.07254 13.2133 2.42417 12.8617C2.77581 12.51 3.25272 12.3125 3.75 12.3125V17.9375C3.74967 18.2513 3.77318 18.5647 3.82031 18.875H3.75ZM19.6875 19.8125H10.3125C10.0639 19.8125 9.8254 19.7137 9.64959 19.5379C9.47377 19.3621 9.375 19.1236 9.375 18.875C9.375 18.6264 9.47377 18.3879 9.64959 18.2121C9.8254 18.0363 10.0639 17.9375 10.3125 17.9375H19.6875C19.9361 17.9375 20.1746 18.0363 20.3504 18.2121C20.5262 18.3879 20.625 18.6264 20.625 18.875C20.625 19.1236 20.5262 19.3621 20.3504 19.5379C20.1746 19.7137 19.9361 19.8125 19.6875 19.8125ZM19.6875 16.0625H10.3125C10.0639 16.0625 9.8254 15.9637 9.64959 15.7879C9.47377 15.6121 9.375 15.3736 9.375 15.125C9.375 14.8764 9.47377 14.6379 9.64959 14.4621C9.8254 14.2863 10.0639 14.1875 10.3125 14.1875H19.6875C19.9361 14.1875 20.1746 14.2863 20.3504 14.4621C20.5262 14.6379 20.625 14.8764 20.625 15.125C20.625 15.3736 20.5262 15.6121 20.3504 15.7879C20.1746 15.9637 19.9361 16.0625 19.6875 16.0625ZM28.125 17C28.125 17.4973 27.9275 17.9742 27.5758 18.3258C27.2242 18.6775 26.7473 18.875 26.25 18.875H26.1797C26.2268 18.5647 26.2503 18.2513 26.25 17.9375V12.3125C26.7473 12.3125 27.2242 12.51 27.5758 12.8617C27.9275 13.2133 28.125 13.6902 28.125 14.1875V17Z" fill="#5A3FC3"/>
</svg>
