<svg width="30" height="30" viewBox="0 0 30 30" fill="none" xmlns="http://www.w3.org/2000/svg">
<path d="M1.87484 14.0626C1.87484 12.5708 2.46747 11.14 3.52236 10.0851C4.57725 9.03025 6.008 8.43762 7.49984 8.43762H12.1873C12.2459 8.43762 18.328 8.35559 24.1053 3.50403C24.3792 3.2729 24.7139 3.12566 25.0693 3.07993C25.4247 3.0342 25.7858 3.09194 26.1092 3.24621C26.4345 3.39414 26.7097 3.6336 26.9012 3.93536C27.0926 4.23711 27.1921 4.58809 27.1873 4.94543V23.1798C27.1921 23.5371 27.0926 23.8881 26.9012 24.1899C26.7097 24.4916 26.4345 24.7311 26.1092 24.879C25.8592 24.994 25.5875 25.0539 25.3123 25.0548C24.8714 25.0577 24.4437 24.904 24.1053 24.6212C19.6639 20.8947 15.0584 19.9806 13.1248 19.7579V23.8712C13.1259 24.1796 13.0505 24.4834 12.9053 24.7554C12.7601 25.0274 12.5496 25.2591 12.2928 25.4298L11.0037 26.297C10.7499 26.4576 10.4627 26.558 10.1642 26.5905C9.86557 26.623 9.56351 26.5867 9.28109 26.4845C9.00068 26.3755 8.75083 26.2003 8.55288 25.9738C8.35493 25.7473 8.21476 25.4762 8.14437 25.1837L6.74984 19.6407C5.40153 19.4544 4.16586 18.7874 3.27015 17.7625C2.37445 16.7376 1.87896 15.4237 1.87484 14.0626ZM9.96078 24.7267L11.2498 23.8712V19.6876H8.69515L9.96078 24.7267ZM7.49984 17.8126H11.2498V10.3126H7.49984C6.50528 10.3126 5.55145 10.7077 4.84819 11.411C4.14493 12.1142 3.74984 13.0681 3.74984 14.0626C3.74984 15.0572 4.14493 16.011 4.84819 16.7143C5.55145 17.4175 6.50528 17.8126 7.49984 17.8126Z" fill="#5A3FC3"/>
</svg>
