<svg width="30" height="30" viewBox="0 0 30 30" fill="none" xmlns="http://www.w3.org/2000/svg">
<path d="M24.375 4.6875H5.625C5.12772 4.6875 4.65081 4.88504 4.29917 5.23667C3.94754 5.58831 3.75 6.06522 3.75 6.5625V13.4414C3.75 23.918 12.6328 27.3984 14.4141 27.9844C14.792 28.1254 15.208 28.1254 15.5859 27.9844C17.3672 27.3984 26.25 23.918 26.25 13.4414V6.5625C26.25 6.06522 26.0525 5.58831 25.7008 5.23667C25.3492 4.88504 24.8723 4.6875 24.375 4.6875ZM19.7461 15.375L16.5117 16.4297L18.5156 19.1836C18.588 19.2826 18.6399 19.3949 18.6685 19.5141C18.6971 19.6334 18.7017 19.7571 18.682 19.8781C18.6624 19.9991 18.619 20.115 18.5542 20.2191C18.4894 20.3232 18.4046 20.4133 18.3047 20.4844C18.1473 20.6068 17.9533 20.6728 17.7539 20.6719C17.6057 20.6705 17.4599 20.6349 17.3277 20.5678C17.1956 20.5007 17.0807 20.404 16.9922 20.2852L15 17.5313L13.0078 20.2852C12.9193 20.404 12.8044 20.5007 12.6723 20.5678C12.5401 20.6349 12.3943 20.6705 12.2461 20.6719C12.0467 20.6728 11.8527 20.6068 11.6953 20.4844C11.5954 20.4133 11.5106 20.3232 11.4458 20.2191C11.381 20.115 11.3376 19.9991 11.318 19.8781C11.2983 19.7571 11.3029 19.6334 11.3315 19.5141C11.3601 19.3949 11.412 19.2826 11.4844 19.1836L13.4883 16.4297L10.2539 15.375C10.0182 15.2996 9.82195 15.1341 9.7078 14.9146C9.59365 14.6951 9.57091 14.4393 9.64453 14.2031C9.72244 13.9666 9.89019 13.7702 10.1116 13.6562C10.333 13.5422 10.5903 13.5198 10.8281 13.5938L14.0625 14.6484V11.25C14.0625 11.0014 14.1613 10.7629 14.3371 10.5871C14.5129 10.4113 14.7514 10.3125 15 10.3125C15.2486 10.3125 15.4871 10.4113 15.6629 10.5871C15.8387 10.7629 15.9375 11.0014 15.9375 11.25V14.6484L19.1719 13.5938C19.4097 13.5198 19.667 13.5422 19.8884 13.6562C20.1098 13.7702 20.2776 13.9666 20.3555 14.2031C20.4291 14.4393 20.4063 14.6951 20.2922 14.9146C20.178 15.1341 19.9818 15.2996 19.7461 15.375Z" fill="#5A3FC3"/>
</svg>
