<svg width="30" height="30" viewBox="0 0 30 30" fill="none" xmlns="http://www.w3.org/2000/svg">
<path d="M26.9414 8.29698C26.9383 8.29698 26.9353 8.29574 26.9331 8.29354C26.9309 8.29135 26.9297 8.28837 26.9297 8.28526C26.7603 7.99688 26.5178 7.75836 26.2266 7.59385L15.9141 1.79307C15.6347 1.63707 15.32 1.55518 15 1.55518C14.68 1.55518 14.3653 1.63707 14.0859 1.79307L3.77345 7.59385C3.48226 7.75836 3.2397 7.99688 3.07032 8.28526C3.07032 8.28837 3.06909 8.29135 3.06689 8.29354C3.06469 8.29574 3.06171 8.29698 3.0586 8.29698V8.32041C2.89659 8.59345 2.81155 8.90527 2.81251 9.22276V20.7774C2.8131 21.1115 2.90237 21.4394 3.07121 21.7277C3.24004 22.0159 3.48237 22.2542 3.77345 22.4181L14.0859 28.2189C14.3456 28.3605 14.6342 28.4407 14.9297 28.4532H15.0938C15.3818 28.4405 15.6628 28.3602 15.9141 28.2189L26.2266 22.4181C26.5176 22.2542 26.76 22.0159 26.9288 21.7277C27.0976 21.4394 27.1869 21.1115 27.1875 20.7774V9.22276C27.1892 8.89778 27.1043 8.57821 26.9414 8.29698ZM15 3.42198L24.3398 8.67198L20.7539 10.711L11.2969 5.4962L15 3.42198ZM15.1055 13.922L5.67188 8.67198L9.37501 6.58604L18.8438 11.8009L15.1055 13.922ZM15.9492 26.0509L16.043 15.5509L19.8047 13.4064V17.8712C19.8047 18.1198 19.9035 18.3583 20.0793 18.5341C20.2551 18.7099 20.4936 18.8087 20.7422 18.8087C20.9908 18.8087 21.2293 18.7099 21.4051 18.5341C21.5809 18.3583 21.6797 18.1198 21.6797 17.8712V12.3399L25.3125 10.2774V20.7774L15.9492 26.0509Z" fill="#5A3FC3"/>
</svg>
