<svg width="20" height="20" viewBox="0 0 20 20" fill="none" xmlns="http://www.w3.org/2000/svg">
<g clip-path="url(#clip0_570_32660)">
<path d="M10 20C15.5228 20 20 15.5228 20 10C20 4.47715 15.5228 0 10 0C4.47715 0 0 4.47715 0 10C0 15.5228 4.47715 20 10 20Z" fill="#BDA2F6"/>
<path d="M10 14H10.0111V14.0111H10V14Z" fill="#BDA2F6" stroke="#F7F4FF" stroke-width="2.5" stroke-linejoin="round"/>
<path fill-rule="evenodd" clip-rule="evenodd" d="M10 4.5C10.8284 4.5 11.5 5.17157 11.5 6V10C11.5 10.8284 10.8284 11.5 10 11.5C9.17157 11.5 8.5 10.8284 8.5 10V6C8.5 5.17157 9.17157 4.5 10 4.5Z" fill="#F7F4FF"/>
</g>
<defs>
<clipPath id="clip0_570_32660">
<rect width="20" height="20" fill="white"/>
</clipPath>
</defs>
</svg>
