<svg width="20" height="20" viewBox="0 0 20 20" fill="none" xmlns="http://www.w3.org/2000/svg">
<path d="M15.4481 5.40239L10.8372 10.0008L15.4357 14.6117L14.5973 15.4478L9.99887 10.8369L5.38795 15.4354L4.55187 14.597L9.16279 9.99856L4.56434 5.38765L5.40269 4.55157L10.0011 9.16248L14.612 4.56404L15.4481 5.40239Z" fill="white"/>
<path fill-rule="evenodd" clip-rule="evenodd" d="M16.0063 5.40314L11.3954 10.0016L15.9938 14.6125L14.5966 16.006L9.99811 11.3951L5.3872 15.9935L3.99373 14.5962L8.60464 9.99781L4.0062 5.38689L5.40345 3.99343L10.0019 8.60434L14.6128 4.00589L16.0063 5.40314ZM10.0011 9.16248L5.40269 4.55157L4.56434 5.38765L9.16279 9.99856L4.55187 14.597L5.38795 15.4354L9.99887 10.8369L14.5973 15.4478L15.4357 14.6117L10.8372 10.0008L15.4481 5.40239L14.612 4.56404L10.0011 9.16248Z" fill="white"/>
<path fill-rule="evenodd" clip-rule="evenodd" d="M16.3598 5.40362L11.7489 10.0021L16.3474 14.613L14.5961 16.3595L9.99763 11.7486L5.38672 16.347L3.64018 14.5958L8.25109 9.99733L3.65265 5.38642L5.40392 3.63987L10.0024 8.25079L14.6133 3.65234L16.3598 5.40362ZM10.0019 8.60434L5.40345 3.99343L4.0062 5.38689L8.60464 9.99781L3.99373 14.5962L5.3872 15.9935L9.99811 11.3951L14.5966 16.006L15.9938 14.6125L11.3954 10.0016L16.0063 5.40314L14.6128 4.00589L10.0019 8.60434Z" fill="white"/>
</svg>
