<svg width="260" height="72" viewBox="0 0 260 72" fill="none" xmlns="http://www.w3.org/2000/svg">
<path d="M129.596 1.13683e-05L142.531 1.14095e-05C143.216 1.14117e-05 143.564 0.337469 143.564 1.00246L143.564 70.9852C143.564 71.6502 143.216 71.9877 142.531 71.9877L129.596 71.9877C128.91 71.9877 128.562 71.6502 128.562 70.9852L128.562 1.00246C128.562 0.337469 128.91 1.13661e-05 129.596 1.13683e-05Z" fill="white"/>
<path d="M186.851 1.29029C187.117 0.823805 187.189 0.496273 187.056 0.297768C186.923 0.0992639 186.749 1.14981e-05 186.544 1.14974e-05L171.051 1.14481e-05C170.775 1.14472e-05 170.57 0.0992639 170.437 0.297768C170.304 0.496273 148.046 28.4755 148.046 28.4755C145.58 31.6515 145.017 34.4505 144.987 35.9889C145.007 37.5273 145.58 40.3262 148.046 43.5023C148.046 43.5023 170.294 71.4815 170.437 71.68C170.57 71.8785 170.775 71.9777 171.051 71.9777L186.544 71.9777C186.749 71.9777 186.913 71.8785 187.056 71.68C187.189 71.4815 187.128 71.1539 186.851 70.6875C186.851 70.6875 160.674 37.3387 160.439 36.8722C160.224 36.4454 160.101 36.3462 160.081 35.9789C160.101 35.6117 160.214 35.5125 160.429 35.0857C160.674 34.639 186.851 1.29029 186.851 1.29029Z" fill="white"/>
<path d="M232.871 38.9069L217.859 38.9069C216.61 38.9069 216.968 37.7456 216.968 37.7456L224.551 13.6968C224.551 13.6968 224.746 13.0616 225.37 13.0616C225.984 13.0616 226.189 13.6968 226.189 13.6968L233.772 37.7456C234.13 38.9069 232.871 38.9069 232.871 38.9069ZM260 71.3822L239.195 5.92537C238.366 3.31504 236.831 1.67737 234.59 1.00246C232.349 0.337469 229.259 1.14878e-05 225.329 1.14752e-05C221.533 1.14631e-05 218.534 0.337469 216.324 1.00246C214.113 1.66745 212.599 3.31504 211.77 5.92537L190.74 71.3822C190.74 71.7792 191.017 71.9877 191.569 71.9877L205.026 71.9877C205.712 71.9877 206.162 71.6502 206.377 70.9852L211.862 53.8146C212.067 53.0801 212.517 52.7129 213.203 52.7129L237.527 52.7129C238.213 52.7129 238.663 53.0503 238.878 53.7153L244.363 71.0845C244.568 71.6899 245.018 71.9877 245.714 71.9877L259.273 71.9877C259.754 71.9877 260 71.7892 260 71.3822Z" fill="white"/>
<path d="M82.8596 57.9335L82.8596 43.3732C82.8596 42.7083 83.2075 42.3708 83.8931 42.3708L115.668 42.3708C116.353 42.3708 116.701 42.0333 116.701 41.3683L116.701 29.8253C116.701 29.1603 116.353 28.8229 115.668 28.8229L83.8931 28.8229C83.2075 28.8229 82.8596 28.4854 82.8596 27.8204L82.8596 14.1534C82.8596 13.4189 83.2075 13.0517 83.8931 13.0517L118.155 13.0517C118.84 13.0517 119.188 12.7142 119.188 12.0492L119.188 1.00246C119.188 0.337469 118.738 1.15272e-05 117.848 1.15244e-05L68.8807 1.13683e-05C68.1951 1.13661e-05 67.8472 0.337469 67.8472 1.00246L67.8472 70.9852C67.8472 71.6601 68.1951 71.9877 68.8807 71.9877L118.155 71.9877C118.84 71.9877 119.188 71.6502 119.188 70.9852L119.188 59.9384C119.188 59.2734 118.84 58.936 118.155 58.936L83.8931 58.936C82.8289 58.936 82.8596 58.271 82.8596 57.9335Z" fill="white"/>
<path d="M43.8399 48.4773C43.8399 54.2538 39.0097 58.9385 33.0539 58.9385L15.8925 58.9385C15.1966 58.9385 14.8589 58.6011 14.8589 57.9361L14.8589 14.0567C14.8589 13.3917 15.2068 13.0542 15.8925 13.0542L32.3887 13.0542C38.7129 13.0542 43.8399 18.0267 43.8399 24.1605L43.8399 48.4773ZM58.9955 50.6807L58.9955 23.5749C58.9955 10.563 48.1175 0.0124626 34.7015 0.0124626L34.6912 0.0124626L1.03357 0.0124625C0.3377 0.0124625 3.1476e-06 0.34992 3.14835e-06 1.01491L3.2275e-06 70.9977C3.22825e-06 71.6627 0.347933 72.0001 1.03357 72.0001L37.0347 72.0001C49.1613 71.9902 58.9955 62.452 58.9955 50.6807Z" fill="white"/>
</svg>
