<svg width="24" height="24" viewBox="0 0 24 24" fill="none" xmlns="http://www.w3.org/2000/svg">
<g clip-path="url(#clip0_437_18461)">
<path d="M5.21311 21C4.12781 21.0001 3.08599 20.577 2.3125 19.822L2.22719 19.7374C1.83857 19.3614 1.52977 18.9119 1.31901 18.4157C1.10825 17.9194 0.99979 17.3863 1.00001 16.8478C0.998639 16.2648 1.11394 15.6874 1.33924 15.1489C1.56454 14.6104 1.89535 14.1217 2.3125 13.7109L12.4843 3.73397C13.5178 2.66681 14.9326 2.04495 16.424 2.00234C17.9154 1.95974 19.364 2.4998 20.4577 3.50618C20.951 3.99416 21.3414 4.57463 21.6061 5.21375C21.8709 5.85288 22.0048 6.53788 21.9999 7.22882C21.994 8.0005 21.8345 8.76342 21.5304 9.47375C21.2263 10.1841 20.7837 10.8278 20.228 11.368L11.0865 20.3492C11.0297 20.425 10.9569 20.4876 10.8732 20.5327C10.7895 20.5778 10.6969 20.6043 10.6019 20.6104C10.5068 20.6164 10.4116 20.6019 10.3228 20.5678C10.234 20.5337 10.1537 20.4808 10.0876 20.4128C10.0214 20.3448 9.97102 20.2634 9.93981 20.1741C9.90861 20.0849 9.89737 19.99 9.90687 19.896C9.91638 19.802 9.9464 19.7112 9.99485 19.6299C10.0433 19.5485 10.109 19.4786 10.1875 19.425L19.3027 10.4438C19.7356 10.0248 20.0808 9.52502 20.3184 8.9733C20.556 8.42157 20.6814 7.82874 20.6874 7.22882C20.6921 6.70964 20.5924 6.19472 20.3941 5.71421C20.1958 5.23369 19.9028 4.79722 19.5324 4.43033C18.6844 3.66424 17.5671 3.25889 16.4208 3.30149C15.2745 3.34409 14.1909 3.83123 13.4031 4.65812L3.26406 14.6351C2.96528 14.9228 2.72726 15.2666 2.56388 15.6465C2.40051 16.0264 2.31506 16.4348 2.3125 16.8478C2.3111 17.2105 2.38231 17.5698 2.52199 17.9049C2.66168 18.2401 2.86707 18.5444 3.12625 18.8003L3.21156 18.8849C3.79874 19.4211 4.57475 19.7072 5.37254 19.6817C6.17033 19.6561 6.9261 19.3209 7.47716 18.7482L16.238 10.1575C16.4037 9.99135 16.5343 9.79412 16.6222 9.57732C16.7101 9.36053 16.7535 9.12853 16.7499 8.8949C16.7513 8.69198 16.7121 8.4908 16.6343 8.30309C16.5566 8.11537 16.4419 7.94488 16.2971 7.80154C15.9657 7.50015 15.5281 7.3401 15.0787 7.35593C14.6293 7.37176 14.2043 7.5622 13.8952 7.88614L7.85778 13.8215C7.7342 13.9432 7.56695 14.0113 7.3928 14.0106C7.21866 14.01 7.05189 13.9408 6.92919 13.8183C6.80649 13.6957 6.7379 13.5299 6.73851 13.3572C6.73913 13.1845 6.8089 13.0191 6.93247 12.8974L12.9962 6.94247C13.552 6.37777 14.3094 6.05241 15.1049 6.03659C15.9005 6.02076 16.6704 6.31573 17.2487 6.85786C17.5146 7.12632 17.7236 7.44488 17.8633 7.79474C18.0031 8.1446 18.0708 8.51868 18.0624 8.8949C18.0617 9.30005 17.9795 9.70098 17.8206 10.0742C17.6617 10.4475 17.4293 10.7855 17.1371 11.0686L8.40246 19.6854C7.55583 20.5237 6.40947 20.9962 5.21311 21Z" fill="white"/>
</g>
<defs>
<clipPath id="clip0_437_18461">
<rect width="24" height="24" fill="white"/>
</clipPath>
</defs>
</svg>
