<svg width="20" height="20" viewBox="0 0 20 20" fill="none" xmlns="http://www.w3.org/2000/svg">
<path fill-rule="evenodd" clip-rule="evenodd" d="M15.7569 0H4.2431C1.8997 0 0 1.8997 0 4.2431V15.7569C0 18.1003 1.8997 20 4.2431 20H15.7569C18.1003 20 20 18.1003 20 15.7569V4.2431C20 1.8997 18.1003 0 15.7569 0ZM16.3876 5.5605C17.0854 5.5605 17.6512 4.99476 17.6512 4.29689C17.6512 3.59902 17.0854 3.03329 16.3876 3.03329C15.6897 3.03329 15.124 3.59902 15.124 4.29689C15.124 4.99476 15.6897 5.5605 16.3876 5.5605ZM3.75214 5.4208H12.6327C13.1803 5.4208 13.6244 5.47998 13.9796 5.58361C14.3348 5.70201 14.6308 5.87963 14.8972 6.13123C15.1489 6.39764 15.3265 6.6937 15.4301 7.03409C15.5337 7.37452 15.5929 7.81855 15.5929 8.38097V9.12105C15.5929 10.0683 15.4301 10.7788 15.1045 11.2228C14.7788 11.6668 14.246 11.948 13.506 12.0664L15.8889 15.293H13.1211L10.9602 12.0812H6.22389V15.293H3.75214V5.4208ZM6.22389 9.90547H12.2331C12.5735 9.90547 12.8103 9.86109 12.9287 9.75746C13.0471 9.65386 13.1211 9.46144 13.1211 9.16543V8.33659C13.1211 8.05538 13.0471 7.86296 12.9287 7.75937C12.8103 7.65573 12.5735 7.59655 12.2331 7.59655H6.22389V9.90547Z" fill="#B6B0D6"/>
</svg>
