<svg width="20" height="20" viewBox="0 0 20 20" fill="none" xmlns="http://www.w3.org/2000/svg">
<path d="M10.2027 3.3335C10.6477 3.336 11.761 3.34683 12.9444 3.39433L13.3643 3.41266C14.5552 3.4685 15.7452 3.56516 16.336 3.72933C17.1235 3.951 17.7418 4.596 17.951 5.41433C18.2843 6.71433 18.326 9.24933 18.331 9.8635L18.3319 9.99016V10.1352C18.326 10.7493 18.2843 13.2852 17.951 14.5843C17.7393 15.4052 17.1202 16.051 16.336 16.2693C15.7452 16.4335 14.5552 16.5302 13.3643 16.586L12.9444 16.6052C11.761 16.6518 10.6477 16.6635 10.2027 16.6652L10.0068 16.666H9.79435C8.85268 16.6602 4.91435 16.6177 3.66102 16.2693C2.87435 16.0477 2.25518 15.4027 2.04602 14.5843C1.71268 13.2843 1.67102 10.7493 1.66602 10.1352V9.8635C1.67102 9.24933 1.71268 6.7135 2.04602 5.41433C2.25768 4.5935 2.87685 3.94766 3.66185 3.73016C4.91435 3.381 8.85352 3.3385 9.79518 3.3335H10.2027ZM8.33185 7.0835V12.9168L13.3318 10.0002L8.33185 7.0835Z" fill="#B6B0D6"/>
</svg>
