<svg width="20" height="20" viewBox="0 0 20 20" fill="none" xmlns="http://www.w3.org/2000/svg">
<path d="M17.9694 5.70638C18.0898 5.29948 17.9694 5 17.39 5H15.4727C14.9844 5 14.7598 5.25716 14.6393 5.54362C14.6393 5.54362 13.6628 7.92318 12.2826 9.46615C11.8366 9.91211 11.6315 10.0553 11.3874 10.0553C11.2669 10.0553 11.0814 9.91211 11.0814 9.50521V5.70638C11.0814 5.2181 10.9447 5 10.541 5H7.52669C7.2207 5 7.03841 5.22786 7.03841 5.43945C7.03841 5.90169 7.72852 6.00911 7.80013 7.3112V10.1367C7.80013 10.7552 7.68945 10.8691 7.44531 10.8691C6.79427 10.8691 5.21224 8.47982 4.27474 5.74544C4.08594 5.21484 3.90039 5 3.40885 5H1.49154C0.944661 5 0.833984 5.25716 0.833984 5.54362C0.833984 6.05143 1.48503 8.57422 3.86458 11.9076C5.44987 14.1829 7.68294 15.4167 9.71419 15.4167C10.9349 15.4167 11.0846 15.1432 11.0846 14.6712C11.0846 12.4967 10.974 12.2917 11.5859 12.2917C11.8691 12.2917 12.3574 12.4349 13.4967 13.5319C14.7988 14.834 15.0137 15.4167 15.7428 15.4167H17.6602C18.207 15.4167 18.4837 15.1432 18.3242 14.6029C17.9596 13.4668 15.4954 11.1296 15.3848 10.9733C15.1016 10.6087 15.1829 10.446 15.3848 10.1204C15.388 10.1172 17.7285 6.82292 17.9694 5.70638Z" fill="#B6B0D6"/>
</svg>
