<svg width="20" height="20" viewBox="0 0 20 20" fill="none" xmlns="http://www.w3.org/2000/svg">
<path fill-rule="evenodd" clip-rule="evenodd" d="M9.69801 2.04776e-05C4.41225 0.155351 0.155606 4.413 1.71965e-05 9.70017C4.05194 9.64963 6.32988 9.37245 7.85015 7.85186C9.37043 6.33131 9.64749 4.0529 9.69801 2.04776e-05ZM1.71419e-05 10.2999C0.155605 15.587 4.41225 19.8447 9.69801 20C9.64748 15.947 9.37042 13.6688 7.85015 12.1482C6.32988 10.6276 4.05194 10.3504 1.71419e-05 10.2999ZM10.2975 20C15.5833 19.8447 19.84 15.5871 19.9956 10.2999C15.9436 10.3504 13.6657 10.6276 12.1454 12.1482C10.6251 13.6688 10.3481 15.947 10.2975 20ZM19.9999 10.039C20 10.026 20 10.013 20 10C20 9.98701 20 9.97401 19.9999 9.96102V10.039ZM19.9956 9.70017C19.84 4.41297 15.5833 0.15531 10.2975 1.82366e-05C10.3481 4.0529 10.6251 6.33127 12.1454 7.85186C13.6657 9.37243 15.9436 9.64963 19.9956 9.70017Z" fill="#B6B0D6"/>
</svg>
