<svg width="20" height="20" viewBox="0 0 20 20" fill="none" xmlns="http://www.w3.org/2000/svg">
<g clip-path="url(#clip0_919_21305)">
<path d="M10 20C15.5228 20 20 15.5228 20 10C20 4.47715 15.5228 0 10 0C4.47715 0 0 4.47715 0 10C0 15.5228 4.47715 20 10 20Z" fill="#BDA2F6"/>
<path d="M13.8873 7.94146C13.4141 5.91317 11.5977 5 10.0023 5H9.99775C8.40676 5 6.58591 5.90878 6.11267 7.93707C5.58534 10.2024 7.00957 13.121 8.29859 14.3283C8.75548 14.7591 9.3664 14.9999 10.0023 15C10.6152 15 11.2282 14.7761 11.7014 14.3283C12.9904 13.121 14.4147 10.2068 13.8873 7.94146ZM10.0023 10.141C9.81581 10.141 9.6312 10.1052 9.45895 10.0357C9.2867 9.96621 9.13019 9.86434 8.99836 9.73593C8.86653 9.60751 8.76195 9.45506 8.6906 9.28727C8.61925 9.11949 8.58253 8.93966 8.58253 8.75805C8.58253 8.57644 8.61925 8.39661 8.6906 8.22883C8.76195 8.06104 8.86653 7.90859 8.99836 7.78017C9.13019 7.65176 9.2867 7.54989 9.45895 7.48039C9.6312 7.41089 9.81581 7.37512 10.0023 7.37512C10.3788 7.37512 10.7399 7.52082 11.0061 7.78017C11.2724 8.03952 11.422 8.39127 11.422 8.75805C11.422 9.12482 11.2724 9.47658 11.0061 9.73593C10.7399 9.99527 10.3788 10.141 10.0023 10.141Z" fill="white"/>
</g>
<defs>
<clipPath id="clip0_919_21305">
<rect width="20" height="20" fill="white"/>
</clipPath>
</defs>
</svg>
