<svg width="76" height="70" viewBox="0 0 76 70" fill="none" xmlns="http://www.w3.org/2000/svg">
    <path fill-rule="evenodd" clip-rule="evenodd"
        d="M0.361328 0H10.9674V35.5588H29.8226V45.0411L10.9674 45.0411H0.361328V35.5588V0ZM45.142 0H34.6542V45.0411H46.2616V18.112L62.9372 45.0411H62.9373H74.25V0H62.9372V28.3557L45.1424 0L45.1421 0.000449108L45.142 0Z"
        fill="#2F2940" />
    <path fill-rule="evenodd" clip-rule="evenodd"
        d="M50.6201 70C49.6472 70 48.9022 69.7212 48.385 69.1639C47.8801 68.6065 47.6277 67.82 47.6277 66.8044V59.8184C47.6277 58.8028 47.8801 58.0162 48.385 57.4589C48.9022 56.9015 49.6472 56.6228 50.6201 56.6228C51.593 56.6228 52.3318 56.9015 52.8369 57.4589C53.354 58.0162 53.6126 58.8028 53.6126 59.8184V61.1933H51.6915V59.6884C51.6915 58.8833 51.3529 58.4808 50.6755 58.4808C49.9982 58.4808 49.6595 58.8833 49.6595 59.6884V66.953C49.6595 67.7457 49.9982 68.142 50.6755 68.142C51.3529 68.142 51.6915 67.7457 51.6915 66.953V64.9649H53.6126V66.8044C53.6126 67.82 53.354 68.6065 52.8369 69.1639C52.3318 69.7212 51.593 70 50.6201 70ZM3.06636 56.8087H0V69.8143H3.19569C4.20547 69.8143 4.96902 69.5541 5.48621 69.0339C6.0157 68.5013 6.28057 67.7334 6.28057 66.7301V65.6154C6.28057 64.1537 5.77568 63.2496 4.76578 62.9027V62.8656C5.20917 62.6798 5.53553 62.3762 5.74487 61.9551C5.9665 61.534 6.07732 60.989 6.07732 60.3202V59.7999C6.07732 58.7842 5.83718 58.0349 5.35689 57.5518C4.87659 57.0563 4.11316 56.8087 3.06636 56.8087ZM3.73139 61.7879C3.53436 61.9985 3.23259 62.1038 2.82622 62.1038H2.03198V58.6665H3.01095C3.36813 58.6665 3.62666 58.7719 3.7868 58.9824C3.95924 59.193 4.04534 59.5336 4.04534 60.0043V60.7289C4.04534 61.2244 3.94073 61.5774 3.73139 61.7879ZM3.98993 67.6776C3.81761 67.8634 3.55275 67.9563 3.19569 67.9563H2.03198V63.9617H2.93704C3.40503 63.9617 3.73748 64.0794 3.93452 64.3147C4.14386 64.5377 4.24858 64.9465 4.24858 65.541V66.6744C4.24858 67.1449 4.16237 67.4795 3.98993 67.6776ZM13.3829 56.8087H7.84118V69.8143H13.3829V67.9563H9.87316V63.9617H12.6625V62.1039H9.87316V58.6666H13.3829V56.8087ZM17.8749 70.0001C16.8897 70.0001 16.1386 69.7213 15.6213 69.164C15.1041 68.5942 14.8454 67.7829 14.8454 66.7301V56.8087H16.8774V66.8787C16.8774 67.3247 16.9636 67.6467 17.1361 67.8449C17.3208 68.043 17.5793 68.1421 17.9119 68.1421C18.2444 68.1421 18.4968 68.043 18.6692 67.8449C18.854 67.6467 18.9463 67.3247 18.9463 66.8787V56.8087H20.9044V66.7301C20.9044 67.7829 20.6457 68.5942 20.1285 69.164C19.6113 69.7213 18.8601 70.0001 17.8749 70.0001ZM27.0069 56.8087H24.2546L22.1487 69.8143H24.033L24.4023 67.2689H26.7113V67.2317L27.0808 69.8143H29.1128L27.0069 56.8087ZM25.5662 59.0754L26.4712 65.5038H24.6425L25.5291 59.0754H25.5662ZM31.2073 58.6666H29.083V56.8087H35.3635V58.6666H33.2392V69.8143H31.2073V58.6666ZM36.1999 56.8087L38.6567 64.2776V69.8143H40.6886V64.2776L43.1454 56.8087H41.1689L39.7835 61.5835H39.7466L38.3611 56.8087H36.1999ZM57.2269 56.8087H55.1951V69.8143H60.5705V67.9563H57.2269V56.8087ZM64.8715 70.0001C63.8863 70.0001 63.135 69.7213 62.6178 69.164C62.1006 68.5942 61.842 67.7829 61.842 66.7301V56.8087H63.874V66.8787C63.874 67.3247 63.9602 67.6467 64.1326 67.8449C64.3172 68.043 64.5759 68.1421 64.9084 68.1421C65.2409 68.1421 65.4934 68.043 65.6658 67.8449C65.8505 67.6467 65.9429 67.3247 65.9429 66.8787V56.8087H67.9009V66.7301C67.9009 67.7829 67.6423 68.5942 67.1251 69.164C66.6079 69.7213 65.8566 70.0001 64.8715 70.0001ZM72.7866 56.8087H69.7201V69.8143H72.9158C73.9257 69.8143 74.6891 69.5541 75.2064 69.034C75.7359 68.5014 76.0006 67.7334 76.0006 66.7301V65.6154C76.0006 64.1538 75.4958 63.2496 74.486 62.9027V62.8656C74.9292 62.6798 75.2556 62.3763 75.4649 61.9552C75.6867 61.5341 75.7975 60.989 75.7975 60.3202V59.7999C75.7975 58.7843 75.5574 58.0349 75.0771 57.5518C74.5968 57.0564 73.8332 56.8087 72.7866 56.8087ZM73.4515 61.788C73.2544 61.9985 72.9528 62.1039 72.5464 62.1039H71.7521V58.6666H72.7311C73.0882 58.6666 73.3469 58.7719 73.5069 58.9825C73.6793 59.193 73.7655 59.5336 73.7655 60.0044V60.729C73.7655 61.2244 73.6608 61.5774 73.4515 61.788ZM73.7101 67.6777C73.5377 67.8635 73.2729 67.9563 72.9158 67.9563H71.7521V63.9617H72.6572C73.1251 63.9617 73.4577 64.0794 73.6547 64.3147C73.864 64.5378 73.9688 64.9465 73.9688 65.541V66.6744C73.9688 67.145 73.8826 67.4795 73.7101 67.6777Z"
        fill="#2F2940" />
</svg>