<svg width="78" height="282" viewBox="0 0 78 282" fill="none" xmlns="http://www.w3.org/2000/svg">
<path d="M-4.53183e-08 141.438L-6.12465e-07 127.409C-6.42527e-07 126.665 0.365579 126.288 1.08598 126.288L76.9006 126.288C77.621 126.288 77.9866 126.665 77.9866 127.409L77.9866 141.438C77.9866 142.182 77.621 142.559 76.9006 142.559L1.08599 142.559C0.365579 142.559 -1.5256e-08 142.182 -4.53183e-08 141.438Z" fill="#F7F4FF"/>
<path d="M1.3978 79.338C0.892441 79.0494 0.537615 78.9717 0.322568 79.116C0.107522 79.2603 -1.83111e-06 79.4489 -1.82214e-06 79.6709L-1.14282e-06 96.4753C-1.1307e-06 96.775 0.107522 96.997 0.322569 97.1413C0.537615 97.2855 30.8484 121.427 30.8484 121.427C34.2892 124.101 37.3213 124.712 38.9879 124.745C40.6545 124.723 43.6867 124.101 47.1274 121.427C47.1274 121.427 77.4382 97.2966 77.6533 97.1413C77.8683 96.997 77.9758 96.775 77.9758 96.4753L77.9758 79.6709C77.9758 79.4489 77.8683 79.2714 77.6533 79.116C77.4382 78.9717 77.0834 79.0383 76.5781 79.338C76.5781 79.338 40.4502 107.73 39.9449 107.985C39.4825 108.218 39.375 108.352 38.9772 108.374C38.5793 108.352 38.4718 108.229 38.0095 107.996C37.5256 107.73 1.3978 79.338 1.3978 79.338Z" fill="#F7F4FF"/>
<path d="M42.1491 29.4242L42.1491 45.7069C42.1491 47.061 40.8911 46.6725 40.8911 46.6725L14.8382 38.448C14.8382 38.448 14.1501 38.2371 14.1501 37.56C14.1501 36.894 14.8382 36.6721 14.8382 36.6721L40.8911 28.4475C42.1491 28.059 42.1491 29.4242 42.1491 29.4242ZM77.3307 -3.01822e-05L6.41914 22.5649C3.59127 23.4639 1.81714 25.1288 1.08598 27.5596C0.365577 29.9903 -1.68888e-06 33.3423 -1.51658e-06 37.6044C-1.35011e-06 41.7222 0.365578 44.9744 1.08598 47.3718C1.80639 49.7693 3.59128 51.4119 6.41914 52.311L77.3307 75.1201C77.7608 75.1201 77.9866 74.8204 77.9866 74.221L77.9866 59.6254C77.9866 58.8818 77.621 58.3934 76.9006 58.1603L58.2991 52.2111C57.5034 51.9891 57.1056 51.5007 57.1056 50.7571L57.1056 24.3741C57.1056 23.6304 57.4712 23.142 58.1916 22.9089L77.0082 16.9597C77.664 16.7377 77.9866 16.2494 77.9866 15.4946L77.9866 0.788044C77.9866 0.266377 77.7716 -3.0203e-05 77.3307 -3.01822e-05Z" fill="#F7F4FF"/>
<path d="M62.7613 192.129L46.9877 192.129C46.2673 192.129 45.9017 191.752 45.9017 191.008L45.9017 156.545C45.9017 155.801 45.5361 155.424 44.8157 155.424L32.3107 155.424C31.5903 155.424 31.2248 155.801 31.2248 156.545L31.2248 191.008C31.2248 191.752 30.8592 192.129 30.1388 192.129L15.3328 192.129C14.5371 192.129 14.1393 191.752 14.1393 191.008L14.1393 153.848C14.1393 153.104 13.7737 152.727 13.0533 152.727L1.08598 152.727C0.365577 152.727 -2.23134e-06 153.215 -2.19231e-06 154.181L-4.53176e-08 207.291C-1.52553e-08 208.034 0.365579 208.412 1.08599 208.412L76.9006 208.412C77.6318 208.412 77.9866 208.034 77.9866 207.291L77.9866 153.848C77.9866 153.104 77.621 152.727 76.9006 152.727L64.9333 152.727C64.2129 152.727 63.8473 153.104 63.8473 153.848L63.8473 191.008C63.8473 192.162 63.1269 192.129 62.7613 192.129Z" fill="#F7F4FF"/>
<path d="M52.5173 234.451C58.7751 234.451 63.8502 239.689 63.8502 246.149L63.8502 264.763C63.8502 265.518 63.4847 265.884 62.7642 265.884L15.2282 265.884C14.5078 265.884 14.1422 265.506 14.1422 264.763L14.1422 246.871C14.1422 240.011 19.5291 234.451 26.1741 234.451L52.5173 234.451ZM54.9043 218.013L25.5397 218.013C11.4434 218.013 0.0136697 229.811 0.0136703 244.362L0.0136703 244.373L0.0136718 280.879C0.0136719 281.634 0.379251 282 1.09966 282L76.9143 282C77.6347 282 78.0003 281.623 78.0003 280.879L78.0003 241.832C77.9895 228.679 67.6565 218.013 54.9043 218.013Z" fill="#F7F4FF"/>
</svg>
