<svg width="250" height="70" viewBox="0 0 250 70" fill="none" xmlns="http://www.w3.org/2000/svg">
<g clip-path="url(#clip0_437_17547)">
<path d="M35.1076 15.564H0V69.39H49.3885V31.128H35.1076V15.564Z" fill="#004778"/>
<path d="M3.61719 54.5183H8.13411C11.4842 54.5183 13.7728 56.7707 13.7728 60.1483C13.7728 63.526 11.4842 65.7801 8.13411 65.7801H3.61719V54.5183ZM8.04565 64.0097C10.3479 64.0097 11.8404 62.4822 11.8404 60.1483C11.8404 57.8145 10.3479 56.2922 8.04565 56.2922H5.53509V64.0141L8.04565 64.0097Z" fill="white"/>
<path d="M22.9731 64.0265V65.7794H15.2227V54.5176H22.7664V56.2704H17.143V59.1984H22.1287V60.9188H17.143V64.0248L22.9731 64.0265Z" fill="white"/>
<path d="M28.0822 61.0668L26.4449 62.9002V65.7801H24.5254V54.5183H26.4449V60.2938L31.5529 54.5183H33.708L29.3656 59.5541L33.9709 65.7766H31.7274L28.0822 61.0668Z" fill="white"/>
<path d="M42.7311 63.1737H37.5588L36.5407 65.7801H34.5625L39.2129 54.5183H41.1027L45.7667 65.7801H43.7612L42.7311 63.1737ZM42.095 61.5321L40.1465 56.6094L38.2117 61.5321H42.095Z" fill="white"/>
<path d="M63.6684 0H35.1074V15.564H49.3883V31.1281H63.6692L63.6684 0Z" fill="#009FC9"/>
<path d="M35.1074 15.564H49.3883V31.128H35.1074V15.564Z" fill="white"/>
<path d="M73.275 20.1424L73.2661 15.4651L71.1368 19.3633H70.75L68.6206 15.4923V20.1424H67.8164V13.7219H68.5064L70.9639 18.2345L73.3884 13.7219H74.0783L74.0864 20.1424H73.275Z" fill="#2F2940"/>
<path d="M75.7832 15.281H76.5874V17.3449H79.1333V15.281H79.9374V20.1424H79.1333V18.1065H76.5914V20.1424H75.7872L75.7832 15.281Z" fill="#2F2940"/>
<path d="M82.2298 19.8767C81.8836 19.671 81.5966 19.3646 81.4007 18.9916C81.2044 18.599 81.1016 18.1591 81.1016 17.712C81.1016 17.265 81.2044 16.825 81.4007 16.4325C81.596 16.0602 81.8833 15.755 82.2298 15.5517C82.5985 15.3438 83.0076 15.2354 83.4227 15.2354C83.8379 15.2354 84.247 15.3438 84.6157 15.5517C84.9602 15.7564 85.2459 16.0613 85.4408 16.4325C85.6366 16.8252 85.7391 17.2651 85.7391 17.712C85.7391 18.159 85.6366 18.5988 85.4408 18.9916C85.2453 19.3634 84.9599 19.6696 84.6157 19.8767C84.2478 20.0874 83.8384 20.1974 83.4227 20.1974C83.0071 20.1974 82.5977 20.0874 82.2298 19.8767ZM84.1951 19.2116C84.4218 19.0684 84.6069 18.8585 84.7291 18.606C84.8566 18.3283 84.9229 18.0221 84.9229 17.7116C84.9229 17.4011 84.8566 17.0949 84.7291 16.8172C84.6073 16.5657 84.4221 16.3574 84.1951 16.2169C83.9583 16.0783 83.6936 16.0057 83.4248 16.0057C83.1559 16.0057 82.8912 16.0783 82.6544 16.2169C82.4268 16.3581 82.2401 16.5661 82.1156 16.8172C81.9856 17.0941 81.9178 17.4006 81.9178 17.7116C81.9178 18.0226 81.9856 18.3291 82.1156 18.606C82.2406 18.858 82.427 19.0676 82.6544 19.2116C82.8904 19.353 83.1554 19.4272 83.4248 19.4272C83.6941 19.4272 83.9591 19.353 84.1951 19.2116Z" fill="#2F2940"/>
<path d="M90.1907 16.0514H87.7164V20.1424H86.9082V15.281H90.1907V16.0514Z" fill="#2F2940"/>
<path d="M91.5384 19.8767C91.1923 19.6708 90.9054 19.3644 90.7093 18.9916C90.513 18.599 90.4102 18.1591 90.4102 17.712C90.4102 17.265 90.513 16.825 90.7093 16.4325C90.9049 16.0604 91.1921 15.7553 91.5384 15.5517C91.9071 15.3438 92.3162 15.2354 92.7313 15.2354C93.1465 15.2354 93.5556 15.3438 93.9243 15.5517C94.2688 15.7564 94.5545 16.0613 94.7494 16.4325C94.9452 16.8252 95.0477 17.2651 95.0477 17.712C95.0477 18.159 94.9452 18.5988 94.7494 18.9916C94.5539 19.3634 94.2685 19.6696 93.9243 19.8767C93.5564 20.0874 93.147 20.1974 92.7313 20.1974C92.3157 20.1974 91.9063 20.0874 91.5384 19.8767ZM93.5037 19.2116C93.7304 19.0684 93.9155 18.8585 94.0377 18.606C94.1651 18.3283 94.2315 18.0221 94.2315 17.7116C94.2315 17.4011 94.1651 17.0949 94.0377 16.8172C93.9159 16.5657 93.7306 16.3574 93.5037 16.2169C93.2669 16.0783 93.0022 16.0057 92.7334 16.0057C92.4645 16.0057 92.1998 16.0783 91.963 16.2169C91.7356 16.3581 91.5492 16.5661 91.425 16.8172C91.295 17.0941 91.2272 17.4006 91.2272 17.7116C91.2272 18.0226 91.295 18.3291 91.425 18.606C91.5497 18.858 91.7358 19.0676 91.963 19.2116C92.199 19.353 92.464 19.4272 92.7334 19.4272C93.0027 19.4272 93.2677 19.353 93.5037 19.2116Z" fill="#2F2940"/>
<path d="M100.349 15.281V20.1424H99.5412V16.0514H97.025V20.1424H96.2168V15.281H100.349Z" fill="#2F2940"/>
<path d="M105.441 15.5474C105.779 15.75 106.057 16.0519 106.245 16.4186C106.436 16.8189 106.536 17.2633 106.536 17.7143C106.536 18.1654 106.436 18.6098 106.245 19.0101C106.058 19.379 105.78 19.6828 105.441 19.8865C105.085 20.0985 104.685 20.2061 104.279 20.1985C103.976 20.2022 103.676 20.1334 103.4 19.9969C103.134 19.8631 102.902 19.6617 102.722 19.4097V21.9233H101.914V15.281H102.688V16.0514C102.863 15.7856 103.098 15.5741 103.37 15.4379C103.656 15.298 103.966 15.2278 104.279 15.2319C104.685 15.2259 105.085 15.3346 105.441 15.5474ZM104.982 19.2117C105.209 19.068 105.396 18.8584 105.521 18.6061C105.651 18.3292 105.718 18.0227 105.718 17.7117C105.718 17.4007 105.651 17.0942 105.521 16.8173C105.396 16.566 105.21 16.3579 104.982 16.217C104.747 16.074 104.481 16.0011 104.212 16.0058C103.945 16.002 103.682 16.0764 103.45 16.2214C103.224 16.3646 103.038 16.5725 102.912 16.8226C102.776 17.0954 102.708 17.402 102.714 17.7121C102.709 18.0231 102.775 18.3305 102.907 18.6061C103.031 18.8595 103.217 19.0695 103.446 19.2117C103.681 19.3531 103.945 19.4272 104.214 19.4272C104.483 19.4272 104.747 19.3531 104.982 19.2117Z" fill="#2F2940"/>
<path d="M108.421 19.8767C108.075 19.6708 107.788 19.3644 107.592 18.9916C107.396 18.599 107.293 18.1591 107.293 17.712C107.293 17.265 107.396 16.825 107.592 16.4325C107.788 16.0604 108.075 15.7553 108.421 15.5517C108.79 15.3438 109.199 15.2354 109.614 15.2354C110.029 15.2354 110.438 15.3438 110.807 15.5517C111.152 15.7564 111.437 16.0613 111.632 16.4325C111.828 16.8252 111.931 17.2651 111.931 17.712C111.931 18.159 111.828 18.5988 111.632 18.9916C111.437 19.3634 111.151 19.6696 110.807 19.8767C110.439 20.0874 110.03 20.1974 109.614 20.1974C109.199 20.1974 108.789 20.0874 108.421 19.8767ZM110.387 19.2116C110.613 19.0684 110.798 18.8585 110.921 18.606C111.048 18.3283 111.114 18.0221 111.114 17.7116C111.114 17.4011 111.048 17.0949 110.921 16.8172C110.799 16.5657 110.613 16.3574 110.387 16.2169C110.15 16.0783 109.885 16.0057 109.616 16.0057C109.347 16.0057 109.083 16.0783 108.846 16.2169C108.618 16.3581 108.431 16.5661 108.307 16.8172C108.177 17.0941 108.109 17.4006 108.109 17.7116C108.109 18.0226 108.177 18.3291 108.307 18.606C108.432 18.858 108.618 19.0676 108.846 19.2116C109.082 19.353 109.347 19.4272 109.616 19.4272C109.886 19.4272 110.151 19.353 110.387 19.2116Z" fill="#2F2940"/>
<path d="M118.04 19.4824C117.484 19.9539 116.8 20.209 116.096 20.2072V21.9223H115.305V20.2072C114.602 20.2098 113.919 19.9562 113.364 19.4868C113.135 19.2643 112.954 18.9884 112.835 18.6796C112.717 18.3708 112.663 18.0368 112.678 17.7024C112.663 17.3719 112.716 17.0417 112.834 16.7368C112.952 16.4318 113.132 16.16 113.36 15.9417C113.919 15.4793 114.603 15.231 115.305 15.2353V13.3362H116.096V15.2353C116.798 15.2333 117.481 15.4831 118.04 15.9461C118.269 16.1622 118.45 16.4322 118.57 16.7359C118.69 17.0396 118.744 17.3689 118.73 17.6989C118.745 18.0336 118.691 18.3676 118.571 18.6764C118.452 18.9851 118.27 19.2606 118.04 19.4824ZM113.939 18.9224C114.331 19.25 114.811 19.4275 115.306 19.4272V16.0153C114.811 16.0129 114.329 16.1868 113.934 16.5105C113.781 16.6596 113.661 16.8441 113.583 17.0503C113.504 17.2566 113.469 17.4794 113.479 17.7024C113.468 17.93 113.503 18.1574 113.583 18.3684C113.662 18.5793 113.783 18.7685 113.937 18.9224H113.939ZM117.932 17.7024C117.943 17.4777 117.907 17.2532 117.827 17.0458C117.747 16.8384 117.625 16.6536 117.47 16.5053C117.072 16.1872 116.591 16.0155 116.098 16.0153V19.4333C117.32 19.3317 117.931 18.755 117.93 17.7033L117.932 17.7024Z" fill="#2F2940"/>
<path d="M119.876 15.281H120.68V18.8217L123.414 15.281H124.147V20.1424H123.339V16.6017L120.612 20.1424H119.871L119.876 15.281Z" fill="#2F2940"/>
<path d="M129.545 15.281V20.1424H128.736V16.0514H126.819L126.768 17.1337C126.75 17.6832 126.696 18.2306 126.607 18.7717C126.552 19.1493 126.42 19.5087 126.22 19.8234C126.135 19.9511 126.021 20.0539 125.891 20.1227C125.76 20.1914 125.616 20.2241 125.471 20.2178C125.303 20.2143 125.136 20.1866 124.975 20.1354L125.025 19.3922C125.091 19.4099 125.159 19.4193 125.227 19.4203C125.331 19.4241 125.433 19.396 125.522 19.3391C125.612 19.2821 125.684 19.1988 125.732 19.0986C125.851 18.8634 125.925 18.6048 125.951 18.3379C125.985 18.0458 126.015 17.6268 126.043 17.0811L126.119 15.2828L129.545 15.281Z" fill="#2F2940"/>
<path d="M134.47 17.3528C134.62 17.4975 134.739 17.6775 134.816 17.8792C134.893 18.081 134.927 18.2993 134.916 18.5176C134.928 18.7471 134.891 18.9766 134.807 19.1877C134.723 19.3987 134.595 19.5855 134.434 19.7331C134.031 20.0434 133.541 20.1909 133.049 20.1503L131.113 20.1407V15.281H131.921V16.9234L133.175 16.9321C133.639 16.903 134.097 17.0518 134.47 17.3528ZM133.809 19.2423C133.905 19.1523 133.981 19.0391 134.03 18.9116C134.079 18.784 134.1 18.6458 134.091 18.5079C134.101 18.3763 134.082 18.2439 134.034 18.1225C133.986 18.001 133.912 17.8941 133.818 17.8112C133.566 17.6435 133.274 17.5633 132.98 17.5816L131.92 17.5632V19.4711L132.98 19.4807C133.273 19.5093 133.566 19.4256 133.809 19.2441V19.2423Z" fill="#2F2940"/>
<path d="M135.949 15.281H136.753V17.3449H139.295V15.281H140.099V20.1424H139.295V18.1065H136.753V20.1424H135.949V15.281Z" fill="#2F2940"/>
<path d="M144.981 17.3526C145.132 17.4973 145.25 17.6773 145.328 17.879C145.405 18.0808 145.439 18.2991 145.428 18.5174C145.44 18.7469 145.402 18.9764 145.319 19.1875C145.235 19.3985 145.107 19.5853 144.945 19.7329C144.542 20.0432 144.053 20.1907 143.56 20.1501L141.684 20.1405V15.2808H142.492V16.9232L143.698 16.9319C144.158 16.9045 144.612 17.0533 144.981 17.3526ZM144.329 19.2421C144.425 19.1519 144.501 19.0386 144.55 18.9111C144.598 18.7837 144.619 18.6455 144.611 18.5077C144.621 18.3757 144.601 18.2429 144.552 18.1214C144.504 17.9998 144.429 17.8932 144.333 17.811C144.083 17.6443 143.793 17.5642 143.5 17.5814L142.49 17.563V19.4709L143.5 19.4805C143.793 19.5089 144.086 19.4252 144.329 19.2439V19.2421ZM146.092 15.2791H146.9V20.1405H146.092V15.2791Z" fill="#2F2940"/>
<path d="M148.473 15.2809H149.281V18.8215L152.015 15.2809H152.747V20.1423H151.943V16.6016L149.216 20.1423H148.475L148.473 15.2809ZM149.592 14.3229C149.474 14.2038 149.381 14.0578 149.32 13.8954C149.259 13.7329 149.231 13.5579 149.239 13.3826H149.786C149.785 13.4847 149.803 13.586 149.84 13.6798C149.877 13.7737 149.932 13.8581 150.001 13.9277C150.153 14.0713 150.35 14.1454 150.551 14.1345C150.754 14.1451 150.953 14.0711 151.107 13.9277C151.177 13.8589 151.232 13.7747 151.27 13.6807C151.308 13.5868 151.327 13.4851 151.326 13.3826H151.889C151.896 13.5588 151.868 13.7346 151.805 13.8972C151.742 14.0599 151.647 14.2053 151.527 14.3229C151.251 14.5533 150.909 14.6686 150.562 14.6481C150.213 14.6719 149.868 14.5563 149.592 14.3229Z" fill="#2F2940"/>
<path d="M72.8195 26.292V31.1534H72.0877V27.5996L70.4215 30.5995H70.0677L68.4184 27.5908V31.1499H67.6777V26.292H68.5108L70.2615 29.5759L72.062 26.292H72.8195Z" fill="#2F2940"/>
<path d="M78.4096 29.0089H74.7909C74.8104 29.2098 74.8662 29.4044 74.9551 29.5816C75.044 29.7588 75.1642 29.9151 75.3088 30.0413C75.6214 30.3081 76.0104 30.4461 76.4072 30.4313C76.648 30.4414 76.8879 30.3941 77.1101 30.2927C77.3323 30.1913 77.5315 30.0382 77.6939 29.8442L78.1402 30.4129C77.936 30.6717 77.6775 30.8728 77.3867 30.9993C77.0671 31.1382 76.7255 31.207 76.3815 31.2017C75.9458 31.2106 75.5148 31.1019 75.127 30.8853C74.7729 30.6848 74.4793 30.3776 74.281 30.0002C74.0791 29.6082 73.9762 29.1648 73.9827 28.7154C73.9767 28.2704 74.0767 27.8313 74.273 27.4411C74.4585 27.0705 74.7353 26.7639 75.0723 26.5559C75.4229 26.3413 75.8194 26.2319 76.2215 26.2386C76.6208 26.2312 77.0146 26.3408 77.3618 26.5559C77.6941 26.7645 77.9653 27.0714 78.1442 27.4411C78.3373 27.8424 78.4344 28.2903 78.4264 28.7434C78.4251 28.8322 78.4195 28.9208 78.4096 29.0089ZM75.2493 27.3674C74.9857 27.6292 74.8219 27.9891 74.7901 28.3762H77.652C77.6182 27.9912 77.455 27.6335 77.1937 27.3718C76.9223 27.1208 76.5781 26.9827 76.2222 26.9819C75.8663 26.9811 75.5216 27.1177 75.2493 27.3674Z" fill="#2F2940"/>
<path d="M84.1386 30.3796V32.2779H83.3811V31.15H79.6531V32.2779H78.8867V30.3796H79.1223C79.4086 30.3615 79.6051 30.1412 79.7118 29.7188C79.8393 29.132 79.9126 28.5328 79.9305 27.9301L79.9981 26.2886H83.4559V30.3796H84.1386ZM80.532 29.5129C80.4959 29.84 80.3613 30.1448 80.1492 30.3796H82.6493V27.0589H80.7129L80.6711 27.9941C80.6582 28.5033 80.6117 29.0109 80.532 29.5129Z" fill="#2F2940"/>
<path d="M85.1911 26.292H85.9992V29.8327L88.7333 26.292H89.4651V31.1534H88.6569V27.6066L85.9301 31.1473H85.1895L85.1911 26.292Z" fill="#2F2940"/>
<path d="M95.7965 30.3795V32.3146H95.031V31.1499H91.0352V26.292H91.8393V30.383H94.2799V26.292H95.0841V30.383L95.7965 30.3795Z" fill="#2F2940"/>
<path d="M96.8387 26.292H97.6469V29.8327L100.381 26.292H101.114V31.1534H100.305V27.6066L97.5785 31.1473H96.8379L96.8387 26.292Z" fill="#2F2940"/>
<path d="M102.68 26.292H103.488V28.3559H106.03V26.292H106.838V31.1534H106.03V29.1131H103.488V31.1499H102.68V26.292Z" fill="#2F2940"/>
<path d="M109.14 30.8836C108.792 30.6779 108.502 30.3717 108.303 29.9984C108.104 29.6067 108 29.1664 108 28.7188C108 28.2712 108.104 27.831 108.303 27.4393C108.502 27.068 108.792 26.7646 109.14 26.5629C109.515 26.3467 109.933 26.2375 110.357 26.2456C110.731 26.2374 111.102 26.3276 111.438 26.5085C111.749 26.6788 112.005 26.9473 112.174 27.2789L111.56 27.7101C111.431 27.488 111.251 27.3067 111.038 27.1843C110.824 27.0663 110.588 27.0062 110.348 27.009C110.073 27.0044 109.802 27.0768 109.561 27.2193C109.33 27.3587 109.14 27.5673 109.014 27.8205C108.879 28.0951 108.811 28.4029 108.816 28.7145C108.81 29.0292 108.878 29.3403 109.014 29.618C109.14 29.8712 109.33 30.0799 109.561 30.2192C109.802 30.3621 110.073 30.4348 110.348 30.4305C110.588 30.4332 110.824 30.3731 111.038 30.2552C111.251 30.1327 111.431 29.9514 111.56 29.7293L112.174 30.1518C112.004 30.4837 111.748 30.7533 111.438 30.9265C111.103 31.1116 110.732 31.2046 110.357 31.1973C109.933 31.2081 109.514 31.1001 109.14 30.8836Z" fill="#2F2940"/>
<path d="M114.951 29.0966H114.025V31.1517H113.217V26.2921H114.025V28.3429H114.967L116.415 26.2886H117.282L115.593 28.6277L117.402 31.15H116.451L114.951 29.0966Z" fill="#2F2940"/>
<path d="M118.251 26.292H119.059V29.8327L121.793 26.292H122.526V31.1534H121.718V27.6066L118.991 31.1473H118.25L118.251 26.292Z" fill="#2F2940"/>
<path d="M124.092 26.2921H124.9V29.8328L127.634 26.2921H128.367V31.1535H127.559V27.6067L124.832 31.1474H124.092V26.2921ZM125.211 25.3281C125.093 25.209 125 25.0631 124.939 24.9006C124.877 24.7382 124.85 24.5631 124.857 24.3877H125.405C125.404 24.49 125.423 24.5914 125.46 24.6854C125.496 24.7794 125.551 24.864 125.62 24.9337C125.772 25.077 125.969 25.1508 126.171 25.1396C126.373 25.1504 126.572 25.0767 126.726 24.9337C126.796 24.8646 126.851 24.7802 126.889 24.6862C126.927 24.5921 126.946 24.4904 126.945 24.3877H127.508C127.515 24.5639 127.487 24.7397 127.424 24.9024C127.362 25.065 127.267 25.2105 127.146 25.3281C126.871 25.5595 126.528 25.6753 126.181 25.6541C125.832 25.6782 125.487 25.5622 125.211 25.3281Z" fill="#2F2940"/>
<path d="M136.96 30.3795V32.3146H136.195V31.1499H132.197V26.292H133.005V30.383H135.446V26.292H136.25V30.383L136.96 30.3795Z" fill="#2F2940"/>
<path d="M142.017 29.0089H138.398C138.418 29.2098 138.474 29.4044 138.563 29.5816C138.651 29.7588 138.772 29.9151 138.916 30.0413C139.229 30.3081 139.618 30.4461 140.015 30.4313C140.255 30.4414 140.495 30.3941 140.718 30.2927C140.94 30.1913 141.139 30.0382 141.301 29.8442L141.748 30.4129C141.543 30.6715 141.285 30.8726 140.994 30.9993C140.674 31.1383 140.332 31.2071 139.988 31.2017C139.553 31.2105 139.122 31.1018 138.734 30.8853C138.38 30.6851 138.086 30.3777 137.888 30.0002C137.686 29.6083 137.583 29.1649 137.59 28.7154C137.584 28.2704 137.684 27.8313 137.88 27.4411C138.066 27.0703 138.343 26.7637 138.68 26.5559C139.03 26.3413 139.427 26.2319 139.829 26.2386C140.228 26.2312 140.622 26.3408 140.969 26.5559C141.301 26.7647 141.573 27.0716 141.752 27.4411C141.945 27.8424 142.042 28.2903 142.034 28.7434C142.033 28.8322 142.027 28.9208 142.017 29.0089ZM138.857 27.3674C138.593 27.6292 138.429 27.9891 138.398 28.3762H141.259C141.226 27.991 141.062 27.6332 140.8 27.3718C140.529 27.1209 140.185 26.9828 139.829 26.982C139.473 26.9812 139.129 27.1177 138.857 27.3674Z" fill="#2F2940"/>
<path d="M143.287 26.292H144.095V28.3559H146.637V26.292H147.445V31.1534H146.637V29.1131H144.095V31.1499H143.287V26.292Z" fill="#2F2940"/>
<path d="M152.344 27.0588H150.711V31.1499H149.907V27.0588H148.273V26.292H152.347L152.344 27.0588Z" fill="#2F2940"/>
<path d="M156.695 26.5551C157.033 26.7593 157.312 27.063 157.499 27.4315C157.698 27.8274 157.798 28.273 157.789 28.7242C157.797 29.1769 157.697 29.6242 157.499 30.0221C157.312 30.391 157.033 30.6948 156.695 30.8985C156.339 31.11 155.939 31.2175 155.534 31.2105C155.23 31.2144 154.93 31.1453 154.654 31.0081C154.388 30.8747 154.156 30.6736 153.976 30.4218V32.9344H153.172V26.2922H153.946V27.0625C154.12 26.7966 154.355 26.585 154.627 26.449C154.913 26.3088 155.224 26.2382 155.537 26.2422C155.941 26.2361 156.34 26.3438 156.695 26.5551ZM156.236 30.2202C156.463 30.076 156.65 29.8665 156.774 29.6146C156.904 29.3378 156.972 29.0312 156.972 28.7202C156.972 28.4092 156.904 28.1027 156.774 27.8259C156.65 27.5745 156.464 27.3662 156.236 27.2246C156.001 27.0822 155.735 27.0096 155.466 27.0143C155.199 27.0104 154.936 27.0849 154.705 27.2299C154.478 27.3725 154.292 27.5802 154.166 27.8302C154.03 28.1031 153.962 28.4096 153.968 28.7198C153.962 29.0311 154.029 29.3389 154.162 29.6146C154.285 29.868 154.471 30.078 154.7 30.2202C154.935 30.3616 155.199 30.4357 155.468 30.4357C155.737 30.4357 156.001 30.3616 156.236 30.2202Z" fill="#2F2940"/>
<path d="M81.878 69.3899L81.7976 53.2159L74.598 66.3821H71.0782L63.9213 53.6523V69.3899H56.6035V38.8718H63.1236L72.9632 56.4875L82.5639 38.8718H89.0848L89.1652 69.3899H81.878Z" fill="#004778"/>
<path d="M117.237 62.7179V69.3899H94.7578V38.8718H116.718V45.5439H102.597V50.6884H115.038V57.1413H102.597V62.7196L117.237 62.7179Z" fill="#004778"/>
<path d="M121.639 38.8719H134.878C137.694 38.8149 140.485 39.4581 143.039 40.7527C145.313 41.9052 147.23 43.7527 148.559 46.0707C149.843 48.5276 150.518 51.3063 150.518 54.1336C150.518 56.9609 149.843 59.7395 148.559 62.1965C147.23 64.5144 145.313 66.3622 143.039 67.5153C140.484 68.8071 137.694 69.4479 134.878 69.3891H121.639V38.8719ZM134.558 62.5014C136.678 62.6118 138.753 61.8137 140.339 60.278C141.741 58.5956 142.518 56.4042 142.518 54.1314C142.518 51.8585 141.741 49.6671 140.339 47.9847C138.753 46.4479 136.678 45.6495 134.558 45.7604H129.558V62.4997L134.558 62.5014Z" fill="#004778"/>
<path d="M154.68 38.8718H162.599V69.3899H154.68V38.8718Z" fill="#004778"/>
<path d="M174.297 67.973C172.021 66.6808 170.117 64.727 168.798 62.3281C167.487 59.8325 166.797 57.0068 166.797 54.1311C166.797 51.2554 167.487 48.4297 168.798 45.9341C170.118 43.5358 172.021 41.5822 174.297 40.2892C176.736 38.9107 179.451 38.2141 182.198 38.2621C184.575 38.222 186.932 38.7275 189.118 39.7458C191.12 40.691 192.878 42.1579 194.238 44.0174L189.197 48.9884C188.425 47.8784 187.427 46.9782 186.282 46.358C185.138 45.7379 183.877 45.4146 182.598 45.4135C181.181 45.3851 179.781 45.76 178.537 46.5011C177.365 47.2142 176.406 48.2819 175.778 49.5756C175.132 50.9919 174.797 52.5516 174.797 54.1329C174.797 55.7141 175.132 57.2739 175.778 58.6901C176.405 59.9841 177.364 61.0518 178.537 61.7637C179.781 62.5057 181.181 62.8814 182.598 62.8539C183.877 62.853 185.138 62.5299 186.282 61.9099C187.427 61.2899 188.425 60.3898 189.197 59.28L194.238 64.2483C192.878 66.1081 191.12 67.5747 189.118 68.519C186.932 69.5373 184.575 70.0428 182.198 70.0028C179.451 70.0499 176.736 69.3524 174.297 67.973Z" fill="#004778"/>
<path d="M216.04 63.461H204.199L201.998 69.3899H193.918L206.278 38.8718H214.078L226.479 69.3899H218.24L216.04 63.461ZM213.718 57.0966L210.118 47.3309L206.519 57.0966H213.718Z" fill="#004778"/>
<path d="M228.721 38.8718H236.641V62.5443H250.001V69.3899H228.721V38.8718Z" fill="#004778"/>
</g>
<defs>
<clipPath id="clip0_437_17547">
<rect width="250" height="70" fill="white"/>
</clipPath>
</defs>
</svg>
