<svg width="130" height="50" viewBox="0 0 130 50" fill="none" xmlns="http://www.w3.org/2000/svg">
<g clip-path="url(#clip0_5678_7577)">
<path d="M57.3185 0H63.0395C63.3428 0 63.4967 0.157769 63.4967 0.468667V33.1872C63.4967 33.4981 63.3428 33.6559 63.0395 33.6559H57.3185C57.0152 33.6559 56.8613 33.4981 56.8613 33.1872V0.468667C56.8613 0.157769 57.0152 0 57.3185 0Z" fill="#B6B0D6"/>
<path d="M82.6434 0.603235C82.7611 0.385142 82.7928 0.232013 82.734 0.139208C82.6751 0.0464028 82.5982 0 82.5076 0H75.6551C75.5328 0 75.4423 0.0464028 75.3835 0.139208C75.3246 0.232013 65.4803 13.3129 65.4803 13.3129C64.3895 14.7978 64.1405 16.1064 64.127 16.8256C64.136 17.5448 64.3895 18.8534 65.4803 20.3383C65.4803 20.3383 75.3201 33.4192 75.3835 33.512C75.4423 33.6048 75.5328 33.6512 75.6551 33.6512H82.5076C82.5982 33.6512 82.6706 33.6048 82.734 33.512C82.7928 33.4192 82.7656 33.2661 82.6434 33.048C82.6434 33.048 71.0655 17.4567 70.9614 17.2386C70.8664 17.0391 70.8121 16.9927 70.803 16.821C70.8121 16.6493 70.8619 16.6029 70.9569 16.4033C71.0655 16.1945 82.6434 0.603235 82.6434 0.603235Z" fill="#2F2940"/>
<path d="M102.997 18.1898H96.3576C95.8054 18.1898 95.9638 17.6469 95.9638 17.6469L99.3177 6.40357C99.3177 6.40357 99.4037 6.10659 99.6798 6.10659C99.9513 6.10659 100.042 6.40357 100.042 6.40357L103.396 17.6469C103.554 18.1898 102.997 18.1898 102.997 18.1898ZM114.996 33.3728L105.795 2.77024C105.428 1.54985 104.749 0.784205 103.758 0.468667C102.767 0.157769 101.4 0 99.6617 0C97.9825 0 96.6563 0.157769 95.6787 0.468667C94.701 0.779565 94.0311 1.54985 93.6645 2.77024L84.3633 33.3728C84.3633 33.5584 84.4855 33.6559 84.7299 33.6559H90.6818C90.985 33.6559 91.1842 33.4981 91.2792 33.1872L93.7053 25.1595C93.7958 24.8161 93.9949 24.6445 94.2982 24.6445H105.057C105.36 24.6445 105.559 24.8022 105.654 25.1131L108.08 33.2336C108.171 33.5166 108.37 33.6559 108.678 33.6559H114.675C114.888 33.6559 114.996 33.563 114.996 33.3728Z" fill="#B6B0D6"/>
<path d="M36.6477 27.0852V20.278C36.6477 19.9671 36.8016 19.8093 37.1048 19.8093H51.1585C51.4618 19.8093 51.6156 19.6515 51.6156 19.3406V13.944C51.6156 13.6331 51.4618 13.4753 51.1585 13.4753H37.1048C36.8016 13.4753 36.6477 13.3176 36.6477 13.0067V6.61702C36.6477 6.27364 36.8016 6.10195 37.1048 6.10195H52.2584C52.5616 6.10195 52.7155 5.94418 52.7155 5.63328V0.468667C52.7155 0.157769 52.5163 0 52.1226 0H30.465C30.1617 0 30.0078 0.157769 30.0078 0.468667V33.1872C30.0078 33.5027 30.1617 33.6559 30.465 33.6559H52.2584C52.5616 33.6559 52.7155 33.4981 52.7155 33.1872V28.0226C52.7155 27.7117 52.5616 27.5539 52.2584 27.5539H37.1048C36.6341 27.5539 36.6477 27.243 36.6477 27.0852Z" fill="#2F2940"/>
<path d="M19.39 22.6645C19.39 25.3652 17.2537 27.5554 14.6195 27.5554H7.02911C6.72133 27.5554 6.57196 27.3976 6.57196 27.0867V6.57208C6.57196 6.26118 6.72586 6.10341 7.02911 6.10341H14.3253C17.1224 6.10341 19.39 8.42819 19.39 11.2959V22.6645ZM26.0932 23.6947V11.0221C26.0932 4.93871 21.2819 0.00610352 15.3482 0.00610352H15.3436H0.457138C0.14936 0.00610352 0 0.163873 0 0.474771V33.1933C0 33.5042 0.153887 33.662 0.457138 33.662H16.3801C21.7436 33.6573 26.0932 29.198 26.0932 23.6947Z" fill="#2F2940"/>
<path d="M126.75 46.8725C126.7 47.0117 126.592 47.3134 126.42 47.7774C126.248 48.2414 126.098 48.5802 125.967 48.7936C125.836 49.0071 125.691 49.1648 125.528 49.2669C125.365 49.369 125.18 49.42 124.971 49.42C124.695 49.42 124.437 49.3876 124.197 49.318V49.8655C124.487 49.9537 124.75 50.0001 124.985 50.0001C125.297 50.0001 125.569 49.9444 125.786 49.8284C126.008 49.7124 126.203 49.5407 126.366 49.3133C126.533 49.0859 126.737 48.6451 126.981 47.9908L130 39.9585H129.366L127.941 43.8007C127.547 44.8865 127.266 45.7032 127.09 46.2461H127.053C126.936 45.8331 126.664 45.0257 126.23 43.8378L124.804 39.9585H124.17L126.75 46.8725ZM121.903 46.0605C121.722 45.8053 121.631 45.4155 121.631 44.8865V40.5107H123.609V39.9632H121.631V38.2927H121.314L121.002 39.8565L120.002 40.1442V40.5107H121.002V44.9747C121.002 45.6753 121.142 46.1858 121.427 46.5152C121.713 46.8401 122.152 47.0025 122.745 47.0025C123.134 47.0025 123.478 46.9514 123.772 46.8493V46.3389C123.482 46.4085 123.143 46.441 122.754 46.441C122.369 46.441 122.084 46.3157 121.903 46.0605ZM118.35 38.6593C118.476 38.6593 118.576 38.6036 118.648 38.4922C118.721 38.3808 118.757 38.2324 118.757 38.0421C118.757 37.8472 118.721 37.6987 118.648 37.592C118.576 37.4853 118.476 37.4342 118.35 37.4342C118.087 37.4342 117.96 37.6384 117.96 38.0468C117.96 38.4551 118.087 38.6593 118.35 38.6593ZM118.657 39.9632H118.042V46.8725H118.657V39.9632ZM115.725 36.9795H115.109V46.8725H115.725V36.9795ZM112.479 38.6593C112.606 38.6593 112.706 38.6036 112.778 38.4922C112.85 38.3808 112.887 38.2324 112.887 38.0421C112.887 37.8472 112.85 37.6987 112.778 37.592C112.706 37.4853 112.606 37.4342 112.479 37.4342C112.217 37.4342 112.09 37.6384 112.09 38.0468C112.09 38.4551 112.217 38.6593 112.479 38.6593ZM112.792 39.9632H112.176V46.8725H112.792V39.9632ZM109.596 43.397C109.596 44.3714 109.411 45.1232 109.039 45.6521C108.668 46.1811 108.112 46.4456 107.378 46.4456C106.622 46.4456 106.066 46.2183 105.708 45.7635C105.351 45.3088 105.174 44.5617 105.174 43.5176V43.4109C105.174 42.339 105.346 41.5687 105.69 41.1047C106.034 40.6407 106.6 40.404 107.396 40.404C108.858 40.404 109.596 41.4017 109.596 43.397ZM106.093 40.121C105.731 40.3158 105.423 40.6221 105.165 41.0351H105.12L105.138 40.4968C105.156 40.1813 105.16 39.8379 105.16 39.4667V36.9795H104.545V46.8725H104.93L105.102 45.8285H105.156C105.378 46.1997 105.681 46.4874 106.066 46.6916C106.45 46.8957 106.88 46.9978 107.36 46.9978C108.27 46.9978 108.976 46.6869 109.478 46.0651C109.981 45.4433 110.23 44.557 110.23 43.4063C110.23 42.2369 109.99 41.346 109.515 40.7381C109.035 40.1302 108.329 39.824 107.383 39.824C106.889 39.8286 106.455 39.9261 106.093 40.121ZM99.2041 39.6708C99.3353 39.3414 99.4575 38.9702 99.5707 38.5665C99.7155 39.0305 99.8377 39.3971 99.9418 39.6616L101.177 43.0118H97.9322L99.2041 39.6708ZM102.648 46.8725H103.364L99.7925 37.541H99.3897L95.7416 46.8725H96.4431L97.7105 43.5919H101.395L102.648 46.8725ZM90.4188 41.0676C90.7583 41.5177 90.9257 42.1441 90.9257 42.9469H86.7572C86.8251 42.1209 87.0514 41.4898 87.4451 41.049C87.8389 40.6128 88.3594 40.3901 89.0067 40.3901C89.6132 40.3901 90.0839 40.6128 90.4188 41.0676ZM90.2604 46.9097C90.5818 46.8493 90.9348 46.7333 91.315 46.5616V45.9909C90.8669 46.1719 90.5003 46.2925 90.2061 46.3482C89.9164 46.4039 89.577 46.4317 89.1922 46.4317C88.4047 46.4317 87.7937 46.1811 87.3727 45.68C86.9473 45.1788 86.7345 44.455 86.7255 43.5037H91.582V42.9933C91.582 42.0188 91.3512 41.2485 90.8941 40.6778C90.4369 40.1117 89.8078 39.824 89.0157 39.824C88.1195 39.824 87.4044 40.1534 86.8749 40.817C86.3453 41.4805 86.0828 42.3622 86.0828 43.4666C86.0828 44.5802 86.3589 45.448 86.9065 46.0651C87.4542 46.6823 88.2191 46.9932 89.1968 46.9932C89.5815 47.0025 89.939 46.97 90.2604 46.9097ZM83.0774 46.0605C82.8964 45.8053 82.8058 45.4155 82.8058 44.8865V40.5107H84.7838V39.9632H82.8058V38.2927H82.489L82.1767 39.8565L81.1764 40.1442V40.5107H82.1767V44.9747C82.1767 45.6753 82.317 46.1858 82.6022 46.5152C82.8873 46.8401 83.3264 47.0025 83.9193 47.0025C84.3085 47.0025 84.6525 46.9514 84.9467 46.8493V46.3389C84.657 46.4085 84.3176 46.441 83.9283 46.441C83.5436 46.441 83.2585 46.3157 83.0774 46.0605ZM75.8763 46.0698C75.6183 45.8285 75.4871 45.4944 75.4871 45.0628C75.4871 44.5199 75.6862 44.1209 76.0936 43.8656C76.4964 43.6104 77.1708 43.4573 78.1168 43.4109L79.2936 43.3599V44.042C79.2936 44.7937 79.0853 45.3784 78.6689 45.8006C78.2525 46.2229 77.6868 46.4317 76.9671 46.4317C76.5009 46.4271 76.1388 46.3111 75.8763 46.0698ZM79.9046 46.8725V42.274C79.9046 41.4388 79.7235 40.8263 79.3569 40.4318C78.9903 40.0374 78.4381 39.8425 77.6958 39.8425C76.9716 39.8425 76.2384 40.0189 75.5006 40.3762L75.7315 40.9237C76.4013 40.5664 77.0486 40.3901 77.6732 40.3901C78.2525 40.3901 78.6735 40.5571 78.9315 40.8912C79.194 41.2253 79.3207 41.7218 79.3207 42.3808V42.8401L78.0353 42.8773C76.9988 42.9005 76.2067 43.0954 75.6591 43.4666C75.1114 43.8378 74.8353 44.3622 74.8353 45.035C74.8353 45.6475 75.0209 46.1301 75.3875 46.4781C75.7541 46.8261 76.2701 46.9978 76.9309 46.9978C77.4197 46.9978 77.8407 46.905 78.1982 46.7194C78.5558 46.5338 78.9043 46.2183 79.2438 45.7774H79.2936L79.4474 46.8725H79.9046ZM73.1154 46.8725V42.3529C73.1154 40.6685 72.3504 39.8286 70.8206 39.8286C69.6981 39.8286 68.9196 40.1906 68.4806 40.9098H68.4444L68.3267 39.9632H67.8062V46.8725H68.4217V43.0582C68.4217 42.1209 68.6073 41.4434 68.983 41.0258C69.3587 40.6082 69.9471 40.3994 70.7527 40.3994C71.3502 40.3994 71.7937 40.5571 72.0789 40.8727C72.364 41.1882 72.5088 41.694 72.5088 42.39V46.8725H73.1154ZM65.5612 46.8725V42.3529C65.5612 40.6685 64.7963 39.8286 63.2665 39.8286C62.144 39.8286 61.3655 40.1906 60.9264 40.9098H60.8902L60.7725 39.9632H60.252V46.8725H60.8676V43.0582C60.8676 42.1209 61.0532 41.4434 61.4288 41.0258C61.8045 40.6082 62.3929 40.3994 63.1986 40.3994C63.796 40.3994 64.2396 40.5571 64.5247 40.8727C64.8099 41.1882 64.9547 41.694 64.9547 42.39V46.8725H65.5612ZM57.7762 37.5781H57.1426V46.8725H57.7762V37.5781Z" fill="#7A7194"/>
</g>
<defs>
<clipPath id="clip0_5678_7577">
<rect width="130" height="50" fill="white"/>
</clipPath>
</defs>
</svg>
