<svg width="123" height="37" viewBox="0 0 123 37" fill="none" xmlns="http://www.w3.org/2000/svg">
<path d="M79.5887 31.4933L80.9401 29.7344V31.4933H81.354V29.1316H80.9401L79.5887 30.8906V29.1316H79.1742V31.4933H79.5887ZM76.4378 31.4933L77.7741 29.7344V31.4933H78.1886V29.1316H77.7741L76.4182 30.8906V29.1316H76.0038V31.4933H76.4378ZM73.8884 31.4933H74.3219V29.5347H75.3871V29.1411H73.908L73.8884 31.4933ZM71.013 30.3119C71.0002 30.1433 71.0396 29.9749 71.126 29.8296C71.2124 29.6843 71.3415 29.5692 71.4958 29.5C71.6496 29.4315 71.8211 29.4135 71.9859 29.4483C72.1506 29.4831 72.3002 29.5691 72.4131 29.6939C72.489 29.7761 72.5471 29.874 72.5831 29.9808C72.6204 30.0869 72.6349 30.2 72.6261 30.3125C72.6367 30.4774 72.5957 30.6415 72.5086 30.782C72.4215 30.9224 72.2927 31.0322 72.1402 31.0959C72.0394 31.1377 71.9309 31.1577 71.8218 31.1547C71.7127 31.1571 71.6043 31.1367 71.5035 31.0949C71.4028 31.053 71.3119 30.9905 71.2367 30.9114C71.1606 30.8321 71.1016 30.738 71.0631 30.635C71.0247 30.532 71.0076 30.4217 71.013 30.3119ZM70.5746 30.3119C70.5695 30.5613 70.6382 30.8067 70.7722 31.0171C70.9062 31.2276 71.0995 31.3937 71.3277 31.4946C71.5545 31.5938 71.806 31.6229 72.0499 31.5767C72.2937 31.5313 72.518 31.4125 72.6956 31.2375C72.8276 31.1056 72.9289 30.9464 72.9925 30.771C73.056 30.5956 73.0802 30.4083 73.0632 30.2225C73.0463 30.0367 72.9887 29.8569 72.8944 29.6959C72.8002 29.5349 72.6717 29.3966 72.518 29.2908C72.3127 29.1511 72.0701 29.0763 71.8218 29.076C71.6573 29.0669 71.4928 29.0926 71.339 29.1514C71.1852 29.2102 71.0454 29.3007 70.929 29.4172C70.8113 29.5339 70.7191 29.6737 70.6581 29.8277C70.5971 29.9818 70.5686 30.1462 70.5746 30.3119ZM69.3419 31.4933H69.7557V29.1316H68.1332L68.089 29.8639C68.0347 30.9601 67.6998 31.1294 67.5223 31.1149L67.5513 31.5281C68.0448 31.5281 68.3897 31.2943 68.4934 29.9486V29.5505H69.3172L69.3419 31.4933ZM64.9034 30.3119C64.8901 30.1432 64.9294 29.9747 65.0157 29.8292C65.102 29.6837 65.2311 29.5685 65.3855 29.4993C65.4879 29.454 65.5987 29.4306 65.7107 29.4305C65.8227 29.4305 65.9335 29.454 66.036 29.4993C66.1384 29.5446 66.2303 29.6109 66.3056 29.6938C66.381 29.7767 66.4381 29.8745 66.4734 29.9808C66.5107 30.0869 66.5246 30.2 66.5158 30.3125C66.5235 30.4218 66.5082 30.5315 66.4711 30.6346C66.4339 30.7377 66.3757 30.8319 66.3 30.9111C66.2244 30.9904 66.133 31.053 66.0318 31.095C65.9305 31.1369 65.8217 31.1573 65.7121 31.1547C65.603 31.1571 65.4946 31.1367 65.3939 31.0949C65.2931 31.053 65.2022 30.9905 65.127 30.9114C65.051 30.8321 64.9919 30.738 64.9535 30.635C64.915 30.532 64.898 30.4217 64.9034 30.3119ZM64.4649 30.3119C64.4597 30.5621 64.5285 30.8082 64.6627 31.0195C64.7972 31.2299 64.9899 31.3954 65.2174 31.4946C65.4448 31.5941 65.697 31.6228 65.941 31.5769C66.185 31.531 66.4095 31.4128 66.5853 31.2375C66.7625 31.0611 66.8838 30.8363 66.9339 30.5913C66.984 30.3463 66.9608 30.092 66.8671 29.8601C66.7737 29.6292 66.6139 29.4313 66.4077 29.2915C66.2027 29.1517 65.9603 29.0768 65.7121 29.0767C65.5473 29.0668 65.3823 29.0918 65.2278 29.15C65.0733 29.2083 64.9328 29.2985 64.8156 29.4147C64.6975 29.5315 64.6049 29.6716 64.5437 29.826C64.4825 29.9804 64.4539 30.1458 64.4598 30.3119H64.4649ZM61.8315 29.5347H62.6895V31.4782H63.1033V29.5347H63.9664V29.1165H61.8365L61.8315 29.5347ZM60.1989 29.4551C60.3298 29.4432 60.4611 29.4734 60.5736 29.5414C60.6861 29.6094 60.774 29.7115 60.8244 29.8329C60.8585 29.9132 60.8756 30.0004 60.8749 30.0882H59.454C59.4729 29.9056 59.5614 29.7375 59.7004 29.6194C59.8387 29.5019 60.0182 29.4425 60.1989 29.4551ZM61.0076 30.9058C60.8087 31.0748 60.5539 31.1635 60.293 31.1547C60.1926 31.1637 60.0913 31.1522 59.9954 31.1209C59.8995 31.0896 59.811 31.0392 59.7351 30.9727C59.6585 30.9061 59.5959 30.8248 59.5511 30.7337C59.5063 30.6426 59.4801 30.5434 59.4742 30.442H61.2742C61.2836 30.3492 61.2836 30.2556 61.2742 30.1627C61.2806 29.9457 61.2201 29.7319 61.101 29.5503C60.9819 29.3687 60.8099 29.2281 60.6083 29.1474C60.475 29.0951 60.3324 29.0711 60.1894 29.0767C60.0271 29.0796 59.867 29.1147 59.7185 29.18C59.5699 29.2453 59.4357 29.3395 59.3238 29.457C59.0956 29.6956 58.9709 30.0148 58.9768 30.3449C58.9827 30.675 59.1188 30.9895 59.3554 31.2198C59.4714 31.3331 59.6088 31.4223 59.7596 31.4822C59.9103 31.5421 60.0714 31.5714 60.2336 31.5685C60.554 31.5761 60.8654 31.4662 61.1119 31.2589L61.0076 30.9058ZM55.6871 31.4933H56.106V29.7691L56.9444 30.8704L57.7531 29.7691V31.494H58.1676V29.131H57.8024L56.9494 30.3024L56.0763 29.1316H55.6972L55.6871 31.4933ZM54.7551 30.8508C54.672 30.947 54.5689 31.0239 54.453 31.0763C54.3372 31.1286 54.2113 31.1552 54.0842 31.1541C53.9745 31.1569 53.8654 31.1378 53.7633 31.098C53.6611 31.0582 53.5678 30.9984 53.489 30.9222C53.329 30.767 53.2364 30.5552 53.2312 30.3324C53.226 30.1096 53.3086 29.8937 53.4612 29.7312C53.5365 29.6513 53.6268 29.5872 53.727 29.5424C53.8272 29.4976 53.9353 29.4731 54.045 29.4703C54.2914 29.4614 54.5334 29.5511 54.7153 29.7192L54.9081 29.3856C54.7824 29.2756 54.6362 29.1916 54.4778 29.1385C54.3195 29.0853 54.1522 29.0641 53.9856 29.076C53.8234 29.0808 53.6638 29.1178 53.516 29.1847C53.3681 29.2516 53.2351 29.3472 53.1244 29.4659C52.8991 29.7069 52.7778 30.0271 52.7869 30.3569C52.7961 30.6868 52.9348 30.9997 53.1731 31.228C53.4106 31.4554 53.7278 31.5774 54.0545 31.5679C54.224 31.5742 54.3928 31.5421 54.5482 31.4739C54.7035 31.4058 54.8415 31.3033 54.9516 31.1743L54.7551 30.8508ZM50.0702 30.3125C50.0741 30.1522 50.1252 29.9967 50.2173 29.8655C50.3094 29.7343 50.4383 29.6332 50.5877 29.5752C50.7361 29.517 50.8984 29.5044 51.054 29.5391C51.2096 29.5738 51.3512 29.6541 51.4609 29.7698C51.5437 29.8565 51.6066 29.9604 51.645 30.0741C51.6834 30.1877 51.6964 30.3084 51.6831 30.4277C51.6699 30.5469 51.6307 30.6618 51.5683 30.7643C51.5058 30.8667 51.4217 30.9543 51.3219 31.0208C51.1892 31.1092 51.0331 31.1553 50.8739 31.1547C50.765 31.1569 50.6568 31.1363 50.5563 31.0943C50.4558 31.0523 50.3651 30.9898 50.2901 30.9108C50.2143 30.8315 50.1557 30.7375 50.1178 30.6346C50.08 30.5316 50.0638 30.422 50.0702 30.3125ZM49.6267 30.3125C49.6216 30.5625 49.6904 30.8084 49.8245 31.0195C49.959 31.2299 50.1517 31.3954 50.3792 31.4946C50.6066 31.5943 50.8588 31.623 51.1028 31.5772C51.3469 31.5313 51.5714 31.4129 51.7471 31.2375C51.9242 31.061 52.0455 30.8362 52.0956 30.5913C52.1457 30.3463 52.1225 30.092 52.0289 29.8601C51.9356 29.6294 51.7759 29.4315 51.5702 29.2915C51.3649 29.1517 51.1223 29.0768 50.8739 29.0767C50.7096 29.0673 50.5451 29.0928 50.3913 29.1514C50.2374 29.2099 50.0977 29.3003 49.9811 29.4166C49.8632 29.5332 49.7708 29.6731 49.7098 29.8273C49.6488 29.9815 49.6205 30.1467 49.6267 30.3125ZM47.102 31.494H47.5158V29.131H47.102V31.494ZM49.1731 29.131H48.6006L47.615 30.2872L48.6796 31.494H49.2571L48.1325 30.2575L49.1731 29.1316V29.131ZM43.2555 31.494L44.5867 29.7344V31.4933H45.0012V29.1316H44.5867L43.2555 30.8906V29.1316H42.841V31.4933L43.2555 31.494ZM99.175 25.4886L100.526 23.729V25.4886H100.95V23.1262H100.537L99.1851 24.8852V23.1262H98.7706V25.4886H99.175ZM96.0241 25.4886L97.38 23.729V25.4886H97.7944V23.1262H97.38L96.0191 24.8852V23.1262H95.6052V25.4886H96.0241ZM93.4747 25.4886H93.8892V23.4952H94.9538V23.1016H93.4747V25.4886ZM91.4529 23.4649C91.5586 23.4613 91.6639 23.4807 91.7614 23.5217C91.8589 23.5627 91.9464 23.6244 92.0178 23.7024C92.0897 23.7807 92.1442 23.8732 92.1778 23.9741C92.2113 24.0749 92.2231 24.1818 92.2124 24.2875C92.2216 24.399 92.2073 24.5112 92.1705 24.6168C92.1338 24.7225 92.0753 24.8193 91.9988 24.901C91.9226 24.9819 91.8302 25.0458 91.7277 25.0886C91.6251 25.1314 91.5147 25.1521 91.4036 25.1493C91.1806 25.1565 90.9612 25.0921 90.7775 24.9654V23.794C90.8594 23.6934 90.9622 23.6119 91.0789 23.5551C91.1956 23.4984 91.3232 23.4671 91.4529 23.4649ZM90.363 26.545H90.7775V25.3786C90.9784 25.4936 91.2071 25.5505 91.4384 25.5429C91.603 25.5468 91.7667 25.5163 91.9188 25.4531C92.0709 25.39 92.2082 25.2958 92.3217 25.1765C92.4363 25.0568 92.5252 24.9149 92.5827 24.7594C92.6402 24.604 92.6651 24.4384 92.6559 24.273C92.6837 24.0429 92.6375 23.8101 92.524 23.6081C92.4105 23.4061 92.2356 23.2455 92.0247 23.1496C91.8852 23.0872 91.734 23.0555 91.5812 23.0567C91.4323 23.0554 91.2848 23.0844 91.1474 23.1417C91.01 23.199 90.8857 23.2836 90.7819 23.3903V23.111H90.3681L90.363 26.545ZM89.6927 23.1313H89.1992L88.6571 24.6261C88.6173 24.7557 88.5782 24.8757 88.5485 24.9901L88.4101 24.6312L87.7201 23.1363H87.2267L88.3513 25.498L88.297 25.6282C88.1441 26.0067 87.9963 26.1608 87.8036 26.1608C87.7123 26.1544 87.6235 26.129 87.5426 26.0863L87.4093 26.4053C87.5388 26.4988 87.6942 26.5494 87.8528 26.55C88.1833 26.55 88.4006 26.3453 88.7456 25.498L89.6927 23.1313ZM85.6042 23.4699C85.7099 23.4662 85.8152 23.4856 85.9127 23.5266C86.0103 23.5676 86.0977 23.6293 86.169 23.7075C86.2409 23.7858 86.2954 23.8784 86.3289 23.9792C86.3624 24.08 86.3743 24.1868 86.3636 24.2925C86.3766 24.4606 86.3363 24.6285 86.2485 24.7724C86.1608 24.9163 86.03 25.0289 85.8746 25.0943C85.7723 25.1373 85.6617 25.1575 85.5505 25.1543C85.3274 25.16 85.1082 25.0955 84.9237 24.9698V23.794C85.0068 23.6935 85.1106 23.6121 85.2281 23.5554C85.3455 23.4987 85.4738 23.4681 85.6042 23.4655V23.4699ZM84.5099 26.545H84.9237V25.3786C85.1253 25.4936 85.354 25.5505 85.5846 25.5429C85.7493 25.5467 85.913 25.5161 86.0653 25.453C86.2175 25.3899 86.3548 25.2957 86.4685 25.1765C86.5827 25.0565 86.6713 24.9145 86.7287 24.7591C86.7862 24.6038 86.8114 24.4384 86.8028 24.273C86.8209 24.1196 86.8064 23.9641 86.7604 23.8167C86.7143 23.6693 86.6377 23.5333 86.5355 23.4175C86.4336 23.3029 86.3084 23.2114 86.1683 23.1492C86.0281 23.087 85.8763 23.0554 85.723 23.0567C85.574 23.0548 85.4263 23.0834 85.2888 23.1408C85.1514 23.1981 85.0271 23.2831 84.9237 23.3903V23.111H84.5099V26.545ZM81.7779 25.493L83.1287 23.734V25.4936H83.5483V23.1262H83.1287L81.7779 24.8852V23.1262H81.3634V25.4886L81.7779 25.493ZM80.599 23.1313H80.1061L79.4648 24.0234L78.8286 23.1313H78.3358L79.1692 24.2925L78.2669 25.4886H78.7597L79.4554 24.5516L80.1409 25.5082H80.6337L79.746 24.2673L80.599 23.1313ZM74.5683 21.9201C74.5641 22.0223 74.5822 22.1242 74.6212 22.2188C74.6602 22.3135 74.7192 22.3985 74.7942 22.4681C74.8691 22.5378 74.9583 22.5903 75.0555 22.6223C75.1528 22.6542 75.2557 22.6646 75.3574 22.653C75.4568 22.6607 75.5567 22.6474 75.6505 22.6139C75.7444 22.5803 75.8301 22.5273 75.902 22.4584C75.9749 22.3893 76.0326 22.3057 76.0712 22.213C76.1098 22.1203 76.1286 22.0205 76.1263 21.9201H75.7371C75.7371 22.1993 75.5842 22.3339 75.3574 22.3339C75.1306 22.3339 74.9777 22.1993 74.9581 21.9201H74.5683ZM74.6472 25.4886L76.0031 23.729V25.4886H76.4176V23.1262H76.0031L74.6472 24.8852V23.1262H74.2328V25.4886H74.6472ZM71.3631 24.3071C71.3549 24.195 71.3695 24.0824 71.406 23.9761C71.4424 23.8698 71.5001 23.772 71.5754 23.6885C71.6511 23.6064 71.7429 23.5407 71.845 23.4956C71.9472 23.4505 72.0576 23.4269 72.1693 23.4263C72.2811 23.4262 72.3917 23.4494 72.494 23.4946C72.5963 23.5397 72.688 23.6058 72.7632 23.6885C72.8392 23.7716 72.8974 23.8694 72.9339 23.976C72.9704 24.0825 72.9846 24.1954 72.9755 24.3077C72.9858 24.4726 72.9445 24.6365 72.8575 24.7769C72.7704 24.9173 72.6419 25.0271 72.4896 25.0912C72.3889 25.1326 72.2806 25.1524 72.1718 25.1493C72.0626 25.1517 71.9541 25.1313 71.8533 25.0895C71.7524 25.0476 71.6614 24.9851 71.5861 24.906C71.5101 24.8267 71.451 24.7326 71.4127 24.6296C71.3743 24.5266 71.3575 24.4168 71.3631 24.3071ZM70.924 24.3071C70.9221 24.5566 70.9935 24.8012 71.1293 25.0097C71.2651 25.2182 71.4591 25.3818 71.6866 25.4785C71.914 25.5758 72.1655 25.6027 72.4083 25.5555C72.6512 25.5083 72.8743 25.3892 73.0488 25.2137C73.2248 25.0378 73.3451 24.8139 73.3944 24.5699C73.4437 24.3255 73.4202 24.072 73.3268 23.8408C73.2337 23.6103 73.0746 23.4124 72.8693 23.2722C72.6652 23.1328 72.424 23.0577 72.1768 23.0567C72.0124 23.0475 71.8479 23.0731 71.694 23.1316C71.5401 23.1902 71.4002 23.2805 71.2835 23.3966C71.1656 23.5133 71.0732 23.6532 71.0122 23.8074C70.9512 23.9616 70.9229 24.1268 70.929 24.2925L70.924 24.3071ZM68.4043 25.4886H68.8232V23.1262H68.4043V25.4886ZM70.4558 23.1262H69.8834L68.8971 24.2824L69.9529 25.4886H70.5297L69.4051 24.2578L70.4558 23.1262ZM67.497 24.8454C67.4125 24.9411 67.3085 25.0178 67.1921 25.0702C67.0756 25.1226 66.9493 25.1495 66.8216 25.1493C66.7119 25.1519 66.6028 25.1326 66.5007 25.0927C66.3985 25.0528 66.3053 24.993 66.2264 24.9168C66.0666 24.7615 65.9741 24.5497 65.9689 24.327C65.9637 24.1042 66.0462 23.8883 66.1986 23.7258C66.3515 23.5641 66.5606 23.4705 66.7818 23.4649C67.0294 23.4554 67.2708 23.5451 67.4528 23.7144L67.6448 23.3859C67.52 23.2743 67.374 23.1889 67.2156 23.1348C67.0571 23.0808 66.8894 23.0591 66.7224 23.0712C66.5601 23.0758 66.4004 23.1126 66.2526 23.1795C66.1047 23.2464 65.9717 23.3422 65.8612 23.4611C65.6946 23.6417 65.5841 23.8669 65.5433 24.1092C65.5024 24.3516 65.533 24.6005 65.6312 24.8258C65.764 25.1265 66.0108 25.3622 66.3174 25.481C66.469 25.5397 66.6301 25.5675 66.7919 25.5631C66.9622 25.5694 67.1317 25.5373 67.2879 25.4692C67.4441 25.401 67.5829 25.2986 67.6941 25.1695L67.497 24.8454ZM63.7693 23.4649C63.9001 23.4531 64.0312 23.4834 64.1436 23.5513C64.256 23.6193 64.3438 23.7214 64.3941 23.8427C64.4285 23.9233 64.4457 24.0103 64.4447 24.0979H62.9801C63.0004 23.916 63.0882 23.7485 63.2265 23.6304C63.3655 23.5129 63.5443 23.4535 63.7244 23.4649H63.7693ZM64.5432 24.9003C64.3411 25.069 64.0852 25.1575 63.823 25.1493C63.7227 25.159 63.6215 25.148 63.5257 25.1171C63.4298 25.0861 63.3413 25.0358 63.2657 24.9692C63.1893 24.9024 63.1272 24.8209 63.0831 24.7294C63.039 24.638 63.0139 24.5386 63.0092 24.4372H64.8042C64.8664 24.1933 64.844 23.9355 64.7408 23.706C64.6375 23.4765 64.4594 23.2888 64.2356 23.1736C64.0878 23.0988 63.9248 23.0588 63.7592 23.0567C63.597 23.0485 63.435 23.075 63.284 23.1345C63.133 23.194 62.9964 23.2851 62.8835 23.4017C62.7696 23.519 62.6816 23.6589 62.6251 23.8124C62.5686 23.9658 62.5449 24.1294 62.5555 24.2925C62.5441 24.461 62.5686 24.63 62.6275 24.7882C62.6863 24.9465 62.7781 25.0905 62.8967 25.2106C63.0153 25.3293 63.1582 25.421 63.3156 25.4793C63.473 25.5375 63.6411 25.5609 63.8084 25.548C64.1281 25.5549 64.4403 25.4456 64.686 25.239L64.5432 24.9003ZM61.7272 23.1262H61.3128V24.2028C61.1517 24.3039 60.9653 24.3557 60.7757 24.3519C60.4598 24.3519 60.2829 24.1725 60.2829 23.794V23.1262H59.8387V23.8389C59.8387 24.4518 60.1104 24.7456 60.6721 24.7456C60.9008 24.7487 61.1264 24.6887 61.3229 24.5712V25.4886H61.7374L61.7272 23.1262ZM57.2401 25.4886L58.596 23.729V25.4886H59.0351V23.1262H58.6206L57.2647 24.8852V23.1262H56.8503V25.4886H57.2401ZM54.0241 23.5552H54.8828V25.498H55.2972V23.5546H56.1553V23.1363H54.0248V23.5546L54.0241 23.5552ZM53.2754 24.8555C53.1918 24.9512 53.0887 25.0278 52.9729 25.0803C52.8572 25.1327 52.7315 25.1597 52.6045 25.1594C52.3833 25.1657 52.1698 25.0823 52.0086 24.9288C51.8478 24.7743 51.7543 24.5626 51.7485 24.3397C51.7427 24.1167 51.8251 23.9004 51.9777 23.7378C52.1293 23.5754 52.3391 23.4813 52.5602 23.475C52.8079 23.4655 53.0486 23.5552 53.2306 23.7245L53.4233 23.3954C53.2995 23.2838 53.1544 23.1985 52.9967 23.1445C52.839 23.0906 52.6721 23.0691 52.5059 23.0814C52.3436 23.0861 52.1839 23.123 52.0359 23.1899C51.888 23.2568 51.7548 23.3524 51.6441 23.4712C51.4192 23.7124 51.2983 24.0324 51.3075 24.362C51.3167 24.6917 51.4553 25.0045 51.6934 25.2327C51.9309 25.4601 52.2481 25.5821 52.5748 25.5732C52.7443 25.5792 52.9129 25.5469 53.0682 25.4787C53.2235 25.4106 53.3615 25.3084 53.4719 25.1796L53.2754 24.8555ZM49.5521 25.1594C49.2811 25.1594 49.1333 25.0103 49.1333 24.786C49.1333 24.5617 49.3797 24.3968 49.6261 24.3968C49.8156 24.3879 50.0026 24.4423 50.1587 24.5516V24.8504C50.0872 24.9437 49.9955 25.0195 49.8904 25.0722C49.7853 25.1248 49.6697 25.1529 49.5521 25.1543V25.1594ZM48.9804 23.6298C49.1762 23.5129 49.3992 23.4529 49.6261 23.4554C50.0898 23.4554 50.1587 23.7587 50.1587 24.2028C49.9815 24.0975 49.7777 24.0455 49.5717 24.0531C49.0789 24.0531 48.6891 24.3222 48.6891 24.8056C48.6803 24.9039 48.6929 25.003 48.7258 25.0961C48.7587 25.1892 48.8113 25.2741 48.8799 25.3451C48.9482 25.4153 49.0309 25.4697 49.1223 25.5047C49.2138 25.5398 49.3117 25.5545 49.4094 25.548C49.5527 25.5554 49.6958 25.5281 49.8263 25.4682C49.9568 25.4084 50.0708 25.3178 50.1587 25.2043V25.5082H50.5529V24.0531C50.5529 23.4402 50.3166 23.0864 49.6507 23.0864C49.3756 23.085 49.1057 23.161 48.8717 23.3056L48.9804 23.6298ZM47.4716 25.4936H47.8854V23.1262H46.2629L46.2136 23.8591C46.1599 24.9553 45.8244 25.1291 45.6469 25.1101L45.681 25.5233C46.1738 25.5233 46.515 25.2895 46.618 23.9438L46.6477 23.5451H47.4665L47.4716 25.4936ZM44.5128 25.4936H44.9266V23.1262H42.8164V25.4886H43.2548V23.4952H44.5324L44.5128 25.4936ZM115.428 8.91351H118.037V17.7539H119.305V8.91351H121.908V7.80783H115.428V8.91351ZM108.885 17.002L106.986 21.3969H108.347L114.201 7.8072H112.849L109.565 15.4667L106.182 7.8072H104.841L108.885 17.002ZM97.0495 8.91351H99.6533V17.7539H100.95V8.91351H103.559V7.80783H97.0698L97.0495 8.91351ZM86.6498 7.80783V17.7741H86.8078L93.9827 10.4829V17.7545H95.2501V7.78698H95.1516L87.9173 15.1666V7.80783H86.6498ZM78.3604 8.91351H80.9641V17.7539H82.212V8.91351H84.8201V7.80783H78.3604V8.91351ZM75.9343 8.63993C75.4683 8.29149 74.9463 8.02505 74.3907 7.85206C73.7837 7.64873 73.1475 7.54628 72.5073 7.54879C71.5243 7.53531 70.5544 7.77556 69.6913 8.24631C68.868 8.69642 68.1853 9.36556 67.7188 10.1797C67.2431 10.9945 66.9946 11.922 66.9991 12.8655C66.9889 13.5481 67.1203 14.2253 67.3852 14.8545C67.6496 15.4817 68.0421 16.0469 68.5376 16.5136C69.0507 17.0098 69.658 17.398 70.3237 17.6553C70.9879 17.912 71.6971 18.0321 72.4087 18.0085C73.3465 18.0246 74.2751 17.8215 75.1205 17.4152C75.8908 17.0402 76.5464 16.4655 77.0191 15.751L76.0328 15.0832C75.3782 15.9215 74.45 16.5034 73.4101 16.7272C72.3722 16.949 71.2892 16.7973 70.3522 16.2988C69.7219 15.9495 69.2011 15.432 68.8478 14.8039C68.4911 14.1803 68.3042 13.474 68.3057 12.7556C68.2973 12.225 68.3987 11.6985 68.6033 11.2089C68.8074 10.7207 69.1108 10.2803 69.4942 9.91557C69.8877 9.52926 70.3551 9.22627 70.8684 9.02471C71.3803 8.82335 71.9277 8.72791 72.4776 8.74418C73.1673 8.71914 73.8525 8.86567 74.4716 9.17066C75.0927 9.47654 75.6289 9.93072 76.0328 10.493L77.0191 9.85997C76.7435 9.38275 76.3766 8.96452 75.9393 8.62919L75.9343 8.6393V8.63993ZM63.32 17.7539H64.5875V7.78824H63.32V11.7352H57.5895V7.80783H56.3227V17.7747H57.5901V12.966H63.3207V17.7551L63.32 17.7539ZM53.2811 4.29936H52.9797L44.1482 14.7938V4.32905H42.817V17.7842H43.1177L51.8943 7.46791V17.7836H53.2799V4.29936H53.2811ZM17.8249 15.8256C18.1312 15.7227 18.4551 15.683 18.7772 15.7087C19.0992 15.7344 19.4128 15.8251 19.6988 15.9753C20.059 16.1604 20.3692 16.4321 20.6017 16.767C20.8344 17.1024 20.9818 17.4896 21.0309 17.8949C21.08 18.3002 21.0294 18.7114 20.8835 19.0927C20.7386 19.4733 20.5025 19.8126 20.1961 20.0809C19.892 20.3484 19.5262 20.536 19.1316 20.6269C18.7369 20.7178 18.3259 20.7091 17.9354 20.6015C17.5446 20.4937 17.1865 20.291 16.8929 20.0114C16.598 19.7305 16.3763 19.3817 16.2472 18.9954C16.045 18.3636 16.0975 17.6768 16.3925 17.0835C16.686 16.4923 17.2006 16.0399 17.8249 15.8256ZM15.7639 19.1552C15.9515 19.7636 16.3285 20.2962 16.8399 20.6754C17.2183 20.9555 17.6585 21.1406 18.1234 21.215C18.5883 21.2895 19.0642 21.2511 19.5112 21.1031C20.2652 20.8462 20.887 20.3016 21.2411 19.588C21.5976 18.8712 21.66 18.0434 21.4148 17.2813C21.2974 16.9022 21.1058 16.5502 20.8513 16.2457C20.5979 15.9424 20.2864 15.6927 19.9351 15.5116C19.5897 15.33 19.2112 15.2202 18.8223 15.1886C18.4334 15.157 18.0421 15.2043 17.672 15.3277C16.9192 15.5878 16.2989 16.1336 15.9452 16.8472C15.589 17.5642 15.5256 18.3917 15.7683 19.1546H15.7639V19.1552ZM33.3486 22.3586C33.2455 22.434 33.126 22.4837 32.9998 22.5037C32.8737 22.5237 32.7446 22.5134 32.6233 22.4735L24.0236 19.6083C23.8961 19.5648 23.7882 19.4775 23.7191 19.3618C23.6493 19.2458 23.6225 19.109 23.6433 18.9752C23.6588 18.8401 23.7225 18.7152 23.8227 18.6233C23.9219 18.5318 24.0511 18.4797 24.186 18.4767L31.692 18.3427L31.8 18.2277L31.6913 18.1184L24.2549 17.9788C24.1014 17.9743 23.9545 17.9154 23.8404 17.8126C23.7254 17.7091 23.6505 17.5684 23.6287 17.4152C23.6024 17.2616 23.6306 17.1036 23.7083 16.9685C23.7854 16.834 23.908 16.731 24.0533 16.6779L31.0854 14.186L31.1486 14.0521L31.0159 13.9769L23.9149 16.1844C23.7679 16.23 23.6093 16.2211 23.4683 16.1592C23.3269 16.0964 23.2127 15.9853 23.146 15.8458V15.811C23.076 15.6726 23.0558 15.5142 23.0889 15.3626C23.1221 15.211 23.2065 15.0755 23.328 14.9789L29.2456 10.3888V10.2353L29.0977 10.21L22.9685 14.6258C22.8593 14.7029 22.726 14.7383 22.5929 14.7256C22.4598 14.7128 22.3357 14.6527 22.2432 14.5563C22.1469 14.4594 22.0882 14.3316 22.0775 14.1955C22.0667 14.0595 22.1046 13.924 22.1844 13.8132L27.4752 6.31359C27.5489 6.20893 27.6462 6.12318 27.7593 6.06334C27.8724 6.00349 27.9981 5.97125 28.126 5.96925C29.1173 5.9424 30.0941 6.21212 30.9313 6.74385C31.7721 7.27827 32.4363 8.04911 32.8406 8.95963C33.2032 9.78811 33.3491 10.6952 33.2646 11.5956L33.1609 12.5926C33.1367 12.8369 33.1627 13.0837 33.2374 13.3176C33.312 13.5515 33.4337 13.7677 33.595 13.9529L34.2458 14.6902C34.8437 15.3697 35.2565 16.1918 35.4443 17.0772C35.6437 18.0682 35.5515 19.0957 35.179 20.0354C34.8084 20.972 34.1722 21.7799 33.3486 22.3598V22.3586ZM26.8737 5.85489L21.5576 13.3438C21.4811 13.4532 21.3674 13.5312 21.2378 13.5632C21.1081 13.5953 20.9713 13.5793 20.8525 13.5182C20.7314 13.4576 20.6358 13.3559 20.5827 13.2313C20.5295 13.1061 20.5221 12.966 20.5619 12.8358L22.7316 5.46569L22.6621 5.32606L22.5439 5.39556L20.1032 12.5919C20.0543 12.7379 19.9556 12.8619 19.8246 12.9426C19.6934 13.0234 19.5376 13.0545 19.3855 13.0304C19.2333 13.0063 19.0948 12.9285 18.995 12.8112C18.8938 12.6932 18.8375 12.5433 18.8358 12.3879L18.6974 4.76311L18.5988 4.66328L18.4851 4.77259L18.3575 12.3973C18.3551 12.552 18.299 12.7009 18.1989 12.8188C18.0991 12.9363 17.9613 13.0146 17.8103 13.0399C17.6518 13.0746 17.4862 13.0475 17.346 12.9647C17.2059 12.8812 17.1022 12.7482 17.0553 12.5919L14.6544 5.39556L14.5211 5.32606L14.4516 5.46506L16.6263 12.8257C16.6659 12.9563 16.6585 13.0966 16.6054 13.2223C16.5523 13.348 16.4569 13.4511 16.3357 13.5138C16.2169 13.5749 16.0801 13.5909 15.9504 13.5588C15.8208 13.5268 15.7071 13.4488 15.6306 13.3394L10.3145 5.86436C10.2335 5.7598 10.1784 5.63761 10.1536 5.50773C10.1288 5.37786 10.135 5.24396 10.1717 5.11693C10.3571 4.41957 10.6911 3.77059 11.151 3.21453C11.6092 2.66063 12.1827 2.21343 12.8316 1.90414C13.4784 1.59635 14.1848 1.43444 14.901 1.42985C15.6173 1.42527 16.3257 1.57812 16.9763 1.87761L17.8792 2.29081C18.098 2.3917 18.3361 2.44394 18.577 2.44394C18.818 2.44394 19.0561 2.3917 19.2749 2.29081L20.1721 1.88266C20.9779 1.51073 21.8689 1.36233 22.7518 1.45303C23.7364 1.5789 24.6618 1.99303 25.4117 2.64337C26.1652 3.297 26.7114 4.15651 26.983 5.11629C27.0219 5.24081 27.0313 5.37263 27.0107 5.50142C26.9901 5.63021 26.94 5.75248 26.8643 5.85868L26.8744 5.85362L26.8737 5.85489ZM9.6637 6.31295L14.9747 13.7886C15.0528 13.8996 15.09 14.0342 15.0801 14.1695C15.0702 14.3048 15.0138 14.4325 14.9204 14.531L14.9008 14.5853C14.8094 14.6834 14.6856 14.745 14.5523 14.7588C14.4189 14.7727 14.2851 14.7377 14.1755 14.6605L8.0115 10.2504L7.86366 10.2751V10.4242L13.8211 15.0289C13.9431 15.1239 14.0285 15.2583 14.0627 15.4092C14.0969 15.5601 14.0778 15.7181 14.0087 15.8565C13.9416 15.9956 13.8268 16.1059 13.6852 16.1674C13.5437 16.2293 13.3857 16.2369 13.2385 16.1901L6.13312 13.963L5.9998 14.0375L6.06362 14.1721L13.1008 16.664C13.2455 16.7164 13.3661 16.8188 13.4439 16.9521C13.5216 17.086 13.55 17.2427 13.5247 17.3963C13.503 17.5492 13.4283 17.6896 13.3137 17.7931C13.1995 17.896 13.0523 17.9549 12.8986 17.9592L5.45707 18.0988L5.34903 18.2088L5.45707 18.3225L12.9725 18.4577C13.1072 18.4614 13.236 18.5137 13.3352 18.6049C13.4351 18.6968 13.499 18.8214 13.5153 18.9562C13.5175 18.966 13.5175 18.9762 13.5153 18.9859C13.536 19.1197 13.5092 19.2566 13.4394 19.3726C13.3705 19.4881 13.2628 19.5754 13.1355 19.619L4.54915 22.4786C4.42522 22.522 4.29252 22.5343 4.16274 22.5143C4.03295 22.4944 3.91006 22.4428 3.80487 22.3642C2.9823 21.7824 2.34729 20.9733 1.97766 20.036C1.60609 19.0956 1.51459 18.0678 1.71419 17.0766C1.90575 16.1956 2.31795 15.3777 2.91212 14.6997L3.573 13.9472C3.73483 13.7636 3.85658 13.5482 3.93045 13.3148C4.00431 13.0815 4.02869 12.8353 4.002 12.5919L3.90344 11.5949C3.79161 10.5653 3.98542 9.52544 4.4607 8.60518C4.89849 7.79492 5.54818 7.11881 6.34035 6.64908C7.12915 6.18168 8.03103 5.93955 8.94786 5.94903H9.02178C9.14967 5.95096 9.27528 5.98311 9.38838 6.04284C9.50148 6.10257 9.59885 6.1882 9.67255 6.29274L9.66307 6.31232L9.6637 6.31295ZM4.24904 23.7751C4.28871 23.6462 4.35869 23.5287 4.45311 23.4324C4.54754 23.3361 4.66367 23.2638 4.79177 23.2216L13.3718 20.3614C13.4989 20.3206 13.6363 20.3269 13.7591 20.3791C13.8822 20.4313 13.9828 20.5256 14.0428 20.6451C14.1048 20.7668 14.1229 20.9061 14.0941 21.0396C14.0653 21.1731 13.9914 21.2926 13.8849 21.378L7.89335 26.0471V26.2019H8.0412L14.1464 21.836C14.2709 21.7483 14.4225 21.7076 14.5741 21.7214C14.7257 21.7352 14.8675 21.8025 14.9741 21.9112C15.0829 22.0229 15.1498 22.1688 15.1634 22.3241C15.177 22.4794 15.1364 22.6347 15.0487 22.7635L10.7877 29.0375L10.813 29.1916H10.9608L15.4429 23.0567C15.5333 22.9329 15.6641 22.8457 15.8125 22.8109C15.9623 22.7784 16.1187 22.7994 16.2546 22.8703C16.3904 22.9412 16.4972 23.0574 16.5562 23.1989C16.6156 23.3423 16.6232 23.5021 16.577 23.6506L14.4074 30.9456L14.4769 31.0801L14.6538 31.0309L17.1198 23.7549C17.1623 23.6264 17.2498 23.5176 17.3662 23.4484C17.482 23.3799 17.6188 23.3561 17.7509 23.3815C17.8872 23.3985 18.0125 23.4651 18.1029 23.5685C18.1938 23.6726 18.2438 23.8062 18.2438 23.9444V33.2132C18.2437 33.3436 18.2135 33.4722 18.1554 33.5889C18.0973 33.7057 18.0129 33.8074 17.9089 33.886H17.8836C17.1583 34.4606 16.2869 34.821 15.3677 34.9267C14.4484 35.0323 13.5179 34.8789 12.6813 34.4837C11.7692 34.0217 11.0155 33.2982 10.5167 32.4057L10.0238 31.5287C9.90528 31.3161 9.74316 31.131 9.54808 30.9854C9.35381 30.8404 9.13088 30.7385 8.89415 30.6865L7.93316 30.4824C6.93497 30.2745 6.02244 29.771 5.31428 29.0375C4.68355 28.3364 4.25241 27.4789 4.06581 26.5544C3.87814 25.628 3.9414 24.6689 4.24904 23.7751ZM14.1957 19.6784C13.8185 18.4887 13.9175 17.199 14.4718 16.0808C14.7424 15.5298 15.1198 15.038 15.5819 14.634C16.0423 14.2317 16.5785 13.9256 17.1589 13.7336C17.6221 13.5723 18.109 13.4897 18.5995 13.4891C19.5812 13.4943 20.5354 13.8136 21.3226 14.4002C22.1143 14.9902 22.6991 15.8156 22.9931 16.7581C23.3741 17.9498 23.2731 19.2432 22.712 20.3614C22.308 21.1917 21.6642 21.8817 20.8639 22.3421C20.0669 22.8007 19.1495 23.0068 18.2329 22.9333C17.3163 22.8598 16.4435 22.51 15.7298 21.9302C15.0117 21.3474 14.4842 20.5632 14.2153 19.6784H14.1957ZM18.9836 23.9545C18.9828 23.8198 19.0296 23.6891 19.1157 23.5855C19.2011 23.4825 19.3205 23.4135 19.4524 23.3909C19.5852 23.3671 19.7222 23.3922 19.8378 23.4617C19.9535 23.5312 20.04 23.6405 20.0836 23.77L22.5439 31.0309L22.6772 31.1004L22.7467 30.9658L20.5714 23.6904C20.5259 23.5388 20.5335 23.3758 20.5954 23.2292C20.6559 23.0848 20.765 22.9662 20.9039 22.894C21.0427 22.8217 21.2025 22.8004 21.3555 22.8337C21.5071 22.8684 21.6417 22.9563 21.7352 23.082L26.2084 29.1474H26.3607V28.9977L22.1004 22.768C22.0124 22.6381 21.9721 22.4817 21.9865 22.3255C22.0009 22.1692 22.0691 22.0228 22.1793 21.9112C22.2885 21.7957 22.4366 21.7246 22.595 21.7118C22.7534 21.6989 22.911 21.7452 23.0374 21.8417L29.1369 26.1968H29.2854L29.2601 26.042L23.2692 21.3982C23.1586 21.3137 23.0811 21.193 23.0504 21.0572C23.0197 20.9214 23.0376 20.7791 23.1012 20.6552C23.1625 20.5331 23.2656 20.4371 23.3918 20.3848C23.5182 20.3323 23.6578 20.3279 23.7867 20.3715L32.4066 23.2166C32.5238 23.2607 32.6293 23.3313 32.7148 23.4229C32.8003 23.5146 32.8635 23.6247 32.8994 23.7448V23.7751C33.2096 24.6659 33.2766 25.625 33.0921 26.5513C32.909 27.4757 32.4816 28.3342 31.8543 29.0375C31.1589 29.7759 30.2563 30.2867 29.2652 30.5027L28.2795 30.7168C28.0489 30.7674 27.8309 30.8653 27.6401 31.005C27.4486 31.1452 27.2883 31.3238 27.1694 31.5294L26.6766 32.4107C26.3308 33.0391 25.8529 33.5851 25.2759 34.0111C24.7013 34.4352 24.041 34.7287 23.3413 34.871C22.6425 35.0132 21.9211 35.0004 21.2278 34.8338C20.5334 34.6667 19.8837 34.3502 19.3242 33.9063H19.2989C19.1959 33.827 19.1126 33.7251 19.0554 33.6084C18.9982 33.4916 18.9686 33.3633 18.9691 33.2334L18.9836 23.9545ZM36.1886 16.9224C35.9726 15.9075 35.4989 14.9653 34.8131 14.1866L34.1624 13.4493C34.0723 13.3463 34.0044 13.226 33.9627 13.0957C33.9211 12.9654 33.9067 12.8279 33.9204 12.6918L34.024 11.6954C34.1331 10.6594 33.9752 9.61278 33.5653 8.6551C33.1029 7.60402 32.3399 6.71325 31.3723 6.09498C30.409 5.47988 29.2837 5.16699 28.1412 5.19654H27.8158L27.7172 4.87747C27.4042 3.76967 26.7731 2.77805 25.902 2.02545C25.0356 1.27675 23.9665 0.802009 22.8301 0.66136C21.817 0.55941 20.7951 0.731581 19.8713 1.15986L18.9741 1.56865C18.8518 1.62143 18.72 1.64866 18.5868 1.64866C18.4536 1.64866 18.3218 1.62143 18.1995 1.56865L17.2922 1.13017C16.5421 0.784126 15.7249 0.607403 14.8988 0.612535C14.0726 0.617667 13.2578 0.804528 12.5119 1.15986C11.7638 1.51671 11.1027 2.03273 10.5748 2.6718C10.0447 3.31362 9.65996 4.06265 9.44699 4.86736L9.34843 5.18643H9.00282C7.94105 5.17135 6.89566 5.44921 5.98148 5.98946C5.06329 6.53263 4.31089 7.31627 3.8055 8.25579C3.26262 9.31176 3.03975 10.5032 3.16421 11.684L3.26783 12.681C3.28215 12.8162 3.26808 12.953 3.22652 13.0824C3.18496 13.2119 3.11682 13.3313 3.02648 13.4329L2.32579 14.1911C1.65046 14.9715 1.18551 15.9114 0.974969 16.9218C0.749094 18.0596 0.855697 19.2383 1.28203 20.3172C1.70661 21.3924 2.43421 22.3213 3.3765 22.991L3.63744 23.1856L3.52371 23.5243C3.17708 24.5491 3.11206 25.6482 3.33543 26.7067C3.55779 27.763 4.0609 28.7397 4.79177 29.5341C5.58357 30.3887 6.61475 30.9845 7.75056 31.2438L8.70713 31.4529C8.83891 31.4801 8.96317 31.5357 9.0713 31.6158C9.17942 31.6959 9.26882 31.7985 9.33326 31.9167L9.82608 32.7987C10.3937 33.8196 11.2521 34.6487 12.2921 35.1806C13.2534 35.6494 14.328 35.8358 15.3911 35.7184C16.4542 35.601 17.4622 35.1845 18.2981 34.5172L18.5988 34.3182L18.8851 34.533C19.9039 35.3199 21.153 35.7505 22.4403 35.7587C23.2812 35.7597 24.1107 35.5634 24.862 35.1857C25.8999 34.651 26.7573 33.8225 27.3274 32.8037L27.8202 31.9167C27.8877 31.798 27.9799 31.6952 28.0905 31.6152C28.2011 31.5352 28.3276 31.4798 28.4615 31.4529L29.4478 31.2438C30.5838 30.9851 31.6151 30.3891 32.4066 29.5341C33.127 28.7396 33.6213 27.7665 33.8382 26.7162C34.056 25.6638 33.989 24.5724 33.6443 23.5546L33.5306 23.2102L33.7921 23.0163C34.7335 22.3458 35.46 21.4165 35.8834 20.3412C36.309 19.2624 36.415 18.0838 36.1886 16.9464" fill="#2C9A54"/>
</svg>
