<svg width="20" height="20" viewBox="0 0 20 20" fill="none" xmlns="http://www.w3.org/2000/svg">
<path d="M6.33486 3.02582C6.47935 2.94349 6.63521 3.06951 6.63521 3.24175V14.6311C6.63521 14.8185 6.51101 14.9773 6.35109 15.0646C6.34566 15.0674 6.34025 15.0702 6.33486 15.073L4.42719 16.1989C3.09589 16.9886 2 16.3333 2 14.737V6.56294C2 6.03364 2.3653 5.3783 2.81989 5.10945L6.33486 3.02582ZM12.0919 5.15398C12.1596 5.18866 12.2165 5.24219 12.2564 5.30853C12.2963 5.37487 12.3175 5.45141 12.3176 5.52953V16.5803C12.3175 16.6513 12.3001 16.7212 12.2668 16.7834C12.2336 16.8455 12.1856 16.898 12.1275 16.9357C12.0693 16.9735 12.0029 16.9954 11.9343 16.9993C11.8658 17.0033 11.7974 16.9892 11.7356 16.9584L8.28554 15.2385C8.21677 15.2043 8.15874 15.1506 8.11811 15.0837C8.07747 15.0168 8.05588 14.9395 8.05581 14.8605V3.76265C8.05567 3.69111 8.0732 3.62071 8.10672 3.55813C8.14024 3.49556 8.18864 3.44288 8.24735 3.40509C8.30605 3.36731 8.37311 3.34567 8.44216 3.34223C8.51121 3.33878 8.57997 3.35365 8.64191 3.38542L12.0919 5.15398ZM18 5.47912V13.654C18 14.1833 17.6347 14.8386 17.1801 15.1075L14.3462 16.7887C14.2845 16.8254 14.2145 16.8446 14.1433 16.8445C14.0721 16.8443 14.0022 16.8248 13.9406 16.7878C13.879 16.7509 13.8279 16.6978 13.7923 16.634C13.7568 16.5701 13.7381 16.4977 13.7382 16.424V5.3447C13.7382 5.27065 13.7572 5.19793 13.7931 5.13389C13.829 5.06986 13.8806 5.01679 13.9428 4.98006L15.5728 4.01723C16.9041 3.22747 18 3.8828 18 5.47912Z" fill="#5A3FC3"/>
</svg>
