<svg width="20" height="20" viewBox="0 0 20 20" fill="none" xmlns="http://www.w3.org/2000/svg">
<g clip-path="url(#clip0_5872_19798)">
<path d="M6.01547 9.10338C7.08213 11.1997 8.80065 12.9108 10.8969 13.9849L12.5266 12.3552C12.7266 12.1552 13.0229 12.0886 13.2821 12.1775C14.1118 12.4515 15.0081 12.5997 15.9266 12.5997C16.334 12.5997 16.6673 12.933 16.6673 13.3404V15.9256C16.6673 16.333 16.334 16.6663 15.9266 16.6663C8.97102 16.6663 3.33398 11.0293 3.33398 4.07375C3.33398 3.66634 3.66732 3.33301 4.07473 3.33301H6.66732C7.07472 3.33301 7.40806 3.66634 7.40806 4.07375C7.40806 4.99967 7.55621 5.88856 7.83028 6.71819C7.91176 6.97745 7.8525 7.26634 7.6451 7.47375L6.01547 9.10338Z" fill="#5A3FC3"/>
</g>
<defs>
<clipPath id="clip0_5872_19798">
<rect width="20" height="20" fill="white"/>
</clipPath>
</defs>
</svg>
