<svg width="20" height="20" viewBox="0 0 20 20" fill="none" xmlns="http://www.w3.org/2000/svg">
<path d="M16.7888 7.5561C15.9014 3.72488 12.4958 2 9.50423 2H9.49577C6.51267 2 3.09858 3.71659 2.21125 7.5478C1.22251 11.8268 3.89294 15.4507 6.30985 17.7312C7.16652 18.5449 8.312 18.9999 9.50423 19C10.6535 19 11.8028 18.5771 12.6901 17.7312C15.1071 15.4507 17.7775 11.8351 16.7888 7.5561ZM9.50423 11.7107C9.15465 11.7107 8.8085 11.6432 8.48553 11.5119C8.16256 11.3806 7.86911 11.1882 7.62192 10.9456C7.37474 10.7031 7.17866 10.4151 7.04488 10.0982C6.9111 9.78125 6.84225 9.44158 6.84225 9.09854C6.84225 8.7555 6.9111 8.41582 7.04488 8.09889C7.17866 7.78197 7.37474 7.494 7.62192 7.25144C7.86911 7.00887 8.16256 6.81646 8.48553 6.68518C8.8085 6.55391 9.15465 6.48634 9.50423 6.48634C10.2102 6.48634 10.8873 6.76155 11.3865 7.25144C11.8857 7.74132 12.1662 8.40574 12.1662 9.09854C12.1662 9.79133 11.8857 10.4558 11.3865 10.9456C10.8873 11.4355 10.2102 11.7107 9.50423 11.7107Z" fill="#5A3FC3"/>
</svg>
