<svg width="24" height="24" viewBox="0 0 24 24" fill="none" xmlns="http://www.w3.org/2000/svg">
<path d="M22.0134 14.0999L20.6165 12.2436C20.6259 12.0749 20.6165 11.8968 20.6165 11.7655L22.0134 9.8999C22.0828 9.8091 22.13 9.70329 22.1512 9.59095C22.1724 9.47861 22.1669 9.36287 22.1353 9.25302C21.899 8.3887 21.5557 7.55727 21.1134 6.77802C21.0563 6.67904 20.9779 6.59402 20.8838 6.52915C20.7898 6.46428 20.6824 6.42119 20.5696 6.40302L18.2727 6.0749L17.9259 5.72802L17.5977 3.43115C17.5794 3.31958 17.5373 3.21327 17.4742 3.11944C17.4111 3.02561 17.3285 2.94647 17.2321 2.8874C16.4488 2.44669 15.6145 2.10352 14.7477 1.86552C14.6379 1.83386 14.5222 1.82839 14.4098 1.84956C14.2975 1.87072 14.1917 1.91793 14.1009 1.9874L12.2446 3.3749H11.7571L9.90087 1.9874C9.81008 1.91793 9.70427 1.87072 9.59193 1.84956C9.47958 1.82839 9.36384 1.83386 9.254 1.86552C8.38968 2.10179 7.55824 2.44507 6.779 2.8874C6.68001 2.94447 6.59499 3.02288 6.53012 3.11694C6.46525 3.211 6.42217 3.31834 6.404 3.43115L6.07587 5.72802L5.729 6.0749L3.43212 6.40302C3.31932 6.42119 3.21198 6.46428 3.11792 6.52915C3.02386 6.59402 2.94544 6.67904 2.88837 6.77802C2.44605 7.55727 2.10277 8.3887 1.8665 9.25302C1.83484 9.36287 1.82937 9.47861 1.85053 9.59095C1.8717 9.70329 1.91891 9.8091 1.98837 9.8999L3.38525 11.7561V12.2343L1.98837 14.0999C1.91891 14.1907 1.8717 14.2965 1.85053 14.4088C1.82937 14.5212 1.83484 14.6369 1.8665 14.7468C2.10277 15.6111 2.44605 16.4425 2.88837 17.2218C2.94544 17.3208 3.02386 17.4058 3.11792 17.4706C3.21198 17.5355 3.31932 17.5786 3.43212 17.5968L5.729 17.9249L6.07587 18.2718L6.404 20.5686C6.42217 20.6815 6.46525 20.7888 6.53012 20.8829C6.59499 20.9769 6.68001 21.0553 6.779 21.1124C7.55824 21.5547 8.38968 21.898 9.254 22.1343C9.31799 22.1528 9.38426 22.1623 9.45087 22.1624C9.61349 22.1645 9.77205 22.1117 9.90087 22.0124L11.7571 20.6249H12.2446L14.1009 22.0124C14.1917 22.0819 14.2975 22.1291 14.4098 22.1502C14.5222 22.1714 14.6379 22.1659 14.7477 22.1343C15.6126 21.8997 16.4443 21.5563 17.2227 21.1124C17.3217 21.0553 17.4068 20.9769 17.4716 20.8829C17.5365 20.7888 17.5796 20.6815 17.5977 20.5686L17.9259 18.2624C18.0384 18.1499 18.1696 18.028 18.2634 17.9249L20.5696 17.5968C20.6824 17.5786 20.7898 17.5355 20.8838 17.4706C20.9779 17.4058 21.0563 17.3208 21.1134 17.2218C21.5557 16.4425 21.899 15.6111 22.1353 14.7468C22.1669 14.6369 22.1724 14.5212 22.1512 14.4088C22.13 14.2965 22.0828 14.1907 22.0134 14.0999ZM12.0009 16.1249C11.185 16.1249 10.3875 15.883 9.70915 15.4297C9.03079 14.9764 8.50208 14.3322 8.18987 13.5785C7.87766 12.8247 7.79597 11.9953 7.95513 11.1951C8.1143 10.395 8.50717 9.65997 9.08406 9.08308C9.66095 8.50619 10.396 8.11332 11.1961 7.95416C11.9963 7.79499 12.8257 7.87668 13.5794 8.18889C14.3332 8.50111 14.9774 9.02982 15.4307 9.70817C15.8839 10.3865 16.1259 11.184 16.1259 11.9999C16.1259 13.0939 15.6913 14.1431 14.9177 14.9167C14.1441 15.6903 13.0949 16.1249 12.0009 16.1249Z" fill="#5A3FC3"/>
</svg>
