<svg display="none" xmlns="http://www.w3.org/2000/svg">

    <symbol id="arrow-left" viewBox="0 0 24 24">
        <path fill-rule="evenodd" clip-rule="evenodd"
            d="M13.8552 7.22339C14.1531 7.52125 14.1531 8.00417 13.8552 8.30203L10.1573 12L13.8552 15.698C14.1531 15.9958 14.1531 16.4788 13.8552 16.7766C13.5574 17.0745 13.0745 17.0745 12.7766 16.7766L8 12L12.7766 7.22339C13.0745 6.92554 13.5574 6.92554 13.8552 7.22339Z" />
    </symbol>

    <symbol id="arrow-right" viewBox="0 0 24 24">
        <path fill-rule="evenodd" clip-rule="evenodd"
            d="M10.1448 16.7766C9.8469 16.4787 9.8469 15.9958 10.1448 15.698L13.8427 12L10.1448 8.30203C9.8469 8.00417 9.8469 7.52125 10.1448 7.22339C10.4426 6.92554 10.9255 6.92554 11.2234 7.22339L16 12L11.2234 16.7766C10.9255 17.0745 10.4426 17.0745 10.1448 16.7766Z" />
    </symbol>

    <symbol id="arrow-bottom" viewBox="0 0 24 24">
        <path fill-rule="evenodd" clip-rule="evenodd"
            d="M7.22339 10.1448C7.52125 9.8469 8.00417 9.8469 8.30203 10.1448L12 13.8427L15.698 10.1448C15.9958 9.8469 16.4787 9.8469 16.7766 10.1448C17.0745 10.4426 17.0745 10.9255 16.7766 11.2234L12 16L7.22339 11.2234C6.92554 10.9255 6.92554 10.4426 7.22339 10.1448Z" />
    </symbol>


    <symbol id="arrow-top" viewBox="0 0 24 24">
        <path fill-rule="evenodd" clip-rule="evenodd"
            d="M16.7766 14.8552C16.4787 15.1531 15.9958 15.1531 15.698 14.8552L12 11.1573L8.30203 14.8552C8.00417 15.1531 7.52125 15.1531 7.22339 14.8552C6.92554 14.5574 6.92554 14.0745 7.22339 13.7766L12 9L16.7766 13.7766C17.0745 14.0745 17.0745 14.5574 16.7766 14.8552Z" />
    </symbol>

    <symbol id='arrow-diagonal' viewBox="0 0 21 21">
        <path
            d="M16.0341 4.53676C16.3688 4.8715 16.3688 5.41421 16.0341 5.74895L5.74839 16.0347C5.41365 16.3694 4.87094 16.3694 4.5362 16.0347C4.20147 15.6999 4.20147 15.1572 4.5362 14.8225L14.8219 4.53676C15.1566 4.20203 15.6994 4.20203 16.0341 4.53676ZM6.21373 5.14286C6.21373 4.66947 6.59749 4.28571 7.07087 4.28571H15.428C15.9014 4.28571 16.2852 4.66947 16.2852 5.14286V13.5C16.2852 13.9734 15.9014 14.3571 15.428 14.3571C14.9546 14.3571 14.5709 13.9734 14.5709 13.5V6H7.07087C6.59749 6 6.21373 5.61624 6.21373 5.14286Z" />
    </symbol>


    <symbol id="search-icon" viewBox="0 0 24 24">
        <path fill-rule="evenodd" clip-rule="evenodd"
            d="M11.1111 5.77778C8.16559 5.77778 5.77778 8.16559 5.77778 11.1111C5.77778 14.0566 8.16559 16.4444 11.1111 16.4444C14.0566 16.4444 16.4444 14.0566 16.4444 11.1111C16.4444 8.16559 14.0566 5.77778 11.1111 5.77778ZM4 11.1111C4 7.18375 7.18375 4 11.1111 4C15.0385 4 18.2222 7.18375 18.2222 11.1111C18.2222 15.0385 15.0385 18.2222 11.1111 18.2222C7.18375 18.2222 4 15.0385 4 11.1111Z" />
        <path fill-rule="evenodd" clip-rule="evenodd"
            d="M14.927 14.927C15.2741 14.5799 15.837 14.5799 16.1841 14.927L19.7397 18.4826C20.0868 18.8297 20.0868 19.3925 19.7397 19.7397C19.3925 20.0868 18.8297 20.0868 18.4826 19.7397L14.927 16.1841C14.5799 15.837 14.5799 15.2741 14.927 14.927Z" />
    </symbol>

    <symbol id="heart-icon" viewBox="0 0 24 24">
        <path
            d="M19 14C20.49 12.54 22 10.79 22 8.5C22 7.04131 21.4205 5.64236 20.3891 4.61091C19.3576 3.57946 17.9587 3 16.5 3C14.74 3 13.5 3.5 12 5C10.5 3.5 9.26 3 7.5 3C6.04131 3 4.64236 3.57946 3.61091 4.61091C2.57946 5.64236 2 7.04131 2 8.5C2 10.8 3.5 12.55 5 14L12 21L19 14Z"
            stroke-width="2" stroke-linecap="round" stroke-linejoin="round" />
    </symbol>

    <symbol id="burger-icon" viewBox="0 0 24 24">
        <path fill-rule="evenodd" clip-rule="evenodd"
            d="M2 6C2 5.44772 2.3731 5 2.83333 5H21.1667C21.6269 5 22 5.44772 22 6C22 6.55228 21.6269 7 21.1667 7H2.83333C2.3731 7 2 6.55228 2 6Z" />
        <path fill-rule="evenodd" clip-rule="evenodd"
            d="M2 12C2 11.4477 2.3731 11 2.83333 11H21.1667C21.6269 11 22 11.4477 22 12C22 12.5523 21.6269 13 21.1667 13H2.83333C2.3731 13 2 12.5523 2 12Z" />
        <path fill-rule="evenodd" clip-rule="evenodd"
            d="M2 18C2 17.4477 2.3731 17 2.83333 17H21.1667C21.6269 17 22 17.4477 22 18C22 18.5523 21.6269 19 21.1667 19H2.83333C2.3731 19 2 18.5523 2 18Z" />
    </symbol>

    <symbol id="navigation-icon" viewBox="0 0 24 24">
        <path d="M3 11L22 2L13 21L11 13L3 11Z" stroke-width="2" stroke-linecap="round" stroke-linejoin="round" />
    </symbol>
    <symbol id="basket-icon" viewBox="0 0 24 24">
        <path d="M8 12L8 8C8 5.79086 9.79086 4 12 4C14.2091 4 16 5.79086 16 8L16 12" stroke-width="1.5"
            stroke-linecap="round" />
        <path
            d="M3.69435 12.6678C3.83942 10.9269 3.91196 10.0565 4.48605 9.52824C5.06013 9 5.9336 9 7.68053 9H16.3195C18.0664 9 18.9399 9 19.514 9.52824C20.088 10.0565 20.1606 10.9269 20.3057 12.6678L20.8195 18.8339C20.904 19.8474 20.9462 20.3542 20.6491 20.6771C20.352 21 19.8435 21 18.8264 21H5.1736C4.15655 21 3.64802 21 3.35092 20.6771C3.05382 20.3542 3.09605 19.8474 3.18051 18.8339L3.69435 12.6678Z"
            stroke-width="1.5" />
    </symbol>


</svg>