<svg width="720" height="400" viewBox="0 0 720 400" fill="none" xmlns="http://www.w3.org/2000/svg">
<g clip-path="url(#clip0_437_15085)">
<path d="M0.557617 -98.5C6.99533 9.36792 96.4141 103.322 194.482 105.322C216.608 105.778 238.447 102.166 260.258 97.5293C282.048 92.8969 303.849 87.2311 325.798 83.6143C396.921 71.8896 461.021 99.042 509.04 157.99H509.041C525.877 178.686 539.267 202.271 552.479 225.965C565.697 249.671 578.736 273.484 594.888 294.707C622.61 331.106 651.887 345.648 683.527 348.801C715.216 351.958 749.311 343.7 786.7 334.378C818.183 326.525 851.944 321.649 882.5 333.506V-98.5H0.557617Z" stroke="#B6B0D6"/>
<path d="M60.5576 -98.5C66.9953 9.36792 156.414 103.322 254.482 105.322C276.608 105.778 298.447 102.166 320.258 97.5293C342.048 92.8969 363.849 87.2311 385.798 83.6143C456.921 71.8896 521.021 99.042 569.04 157.99H569.041C585.877 178.686 599.267 202.271 612.479 225.965C625.697 249.671 638.736 273.484 654.888 294.707C682.61 331.106 711.887 345.648 743.527 348.801C775.216 351.958 809.311 343.7 846.7 334.378C878.183 326.525 911.944 321.649 942.5 333.506V-98.5H60.5576Z" stroke="#B6B0D6"/>
<path d="M130.558 -98.5C136.995 9.36792 226.414 103.322 324.482 105.322C346.608 105.778 368.447 102.166 390.258 97.5293C412.048 92.8969 433.849 87.2311 455.798 83.6143C526.921 71.8896 591.021 99.042 639.04 157.99H639.041C655.877 178.686 669.267 202.271 682.479 225.965C695.697 249.671 708.736 273.484 724.888 294.707C752.61 331.106 781.887 345.648 813.527 348.801C845.216 351.958 879.311 343.7 916.7 334.378C948.183 326.525 981.944 321.649 1012.5 333.506V-98.5H130.558Z" stroke="#B6B0D6"/>
</g>
<defs>
<clipPath id="clip0_437_15085">
<rect width="720" height="400" fill="white" transform="matrix(-1 0 0 1 720 0)"/>
</clipPath>
</defs>
</svg>
