<svg width="150" height="200" viewBox="0 0 150 200" fill="none" xmlns="http://www.w3.org/2000/svg">
<g clip-path="url(#clip0_5773_5589)">
<g clip-path="url(#clip1_5773_5589)">
<path d="M642.322 -449.844C536.463 -471.544 422.568 -409.489 395.253 -315.28C389.087 -294.026 386.923 -271.996 385.757 -249.729C384.592 -227.482 384.422 -204.958 382.235 -182.821C375.152 -111.086 332.334 -56.1981 262.967 -25.0722L262.966 -25.0712C238.618 -14.1654 212.371 -7.33608 186.065 -0.706929C159.746 5.9257 133.369 12.3571 108.689 22.4654C66.3556 39.8225 44.7315 64.338 33.4971 94.0842C22.2456 123.876 21.3979 158.947 20.7254 197.474C20.1625 229.917 16.1342 263.79 -3.22708 290.236L414.059 402.047L642.322 -449.844Z" stroke="#E6DEF4"/>
<path d="M626.793 -391.888C520.934 -413.588 407.038 -351.533 379.724 -257.324C373.558 -236.071 371.394 -214.041 370.228 -191.773C369.062 -169.526 368.893 -147.003 366.706 -124.865C359.623 -53.1304 316.805 1.75751 247.437 32.8834L247.437 32.8844C223.089 43.7901 196.842 50.6195 170.536 57.2486C144.216 63.8813 117.84 70.3127 93.16 80.421C50.8263 97.778 29.2022 122.294 17.9678 152.04C6.71634 181.831 5.86864 216.902 5.19608 255.43C4.63317 287.873 0.604937 321.745 -18.7564 348.191L398.529 460.003L626.793 -391.888Z" stroke="#E6DEF4"/>
<path d="M608.676 -324.274C502.817 -345.974 388.921 -283.919 361.607 -189.71C355.44 -168.456 353.277 -146.426 352.11 -124.159C350.945 -101.912 350.776 -79.3878 348.588 -57.2503C341.505 14.4843 298.688 69.3723 229.32 100.498L229.32 100.499C204.972 111.405 178.725 118.234 152.419 124.863C126.099 131.496 99.7229 137.927 75.0428 148.036C32.7091 165.393 11.085 189.908 -0.149407 219.655C-11.4008 249.446 -12.2485 284.517 -12.9211 323.045C-13.484 355.487 -17.5123 389.36 -36.8736 415.806L380.412 527.617L608.676 -324.274Z" stroke="#E6DEF4"/>
</g>
</g>
<defs>
<clipPath id="clip0_5773_5589">
<rect width="150" height="200" fill="white"/>
</clipPath>
<clipPath id="clip1_5773_5589">
<rect width="883" height="449" fill="white" transform="matrix(0.258819 -0.965926 -0.965926 -0.258819 417 393)"/>
</clipPath>
</defs>
</svg>
