<svg width="150" height="200" viewBox="0 0 150 200" fill="none" xmlns="http://www.w3.org/2000/svg">
<g clip-path="url(#clip0_437_16007)">
<g clip-path="url(#clip1_437_16007)">
<path d="M642.322 -449.844C536.463 -471.544 422.568 -409.489 395.253 -315.28C389.087 -294.026 386.923 -271.997 385.757 -249.729C384.592 -227.482 384.422 -204.958 382.235 -182.821C375.152 -111.086 332.334 -56.1983 262.967 -25.0724L262.966 -25.0715C238.618 -14.1657 212.371 -7.33632 186.065 -0.707173C159.746 5.92546 133.369 12.3569 108.689 22.4652C66.3556 39.8222 44.7315 64.3378 33.4971 94.084C22.2456 123.875 21.3979 158.946 20.7254 197.474C20.1625 229.917 16.1342 263.789 -3.22708 290.235L414.059 402.047L642.322 -449.844Z" stroke="#E6DEF4"/>
<path d="M626.793 -391.889C520.934 -413.589 407.038 -351.534 379.724 -257.325C373.558 -236.071 371.394 -214.041 370.228 -191.774C369.062 -169.527 368.893 -147.003 366.706 -124.866C359.623 -53.1312 316.805 1.75678 247.437 32.8827L247.437 32.8836C223.089 43.7894 196.842 50.6188 170.536 57.2479C144.216 63.8805 117.84 70.3119 93.16 80.4202C50.8263 97.7773 29.2022 122.293 17.9678 152.039C6.71634 181.83 5.86864 216.901 5.19608 255.429C4.63317 287.872 0.604937 321.744 -18.7564 348.191L398.529 460.002L626.793 -391.889Z" stroke="#E6DEF4"/>
<path d="M608.676 -324.274C502.817 -345.974 388.921 -283.919 361.607 -189.71C355.44 -168.456 353.277 -146.426 352.11 -124.159C350.945 -101.912 350.776 -79.3881 348.588 -57.2505C341.505 14.4841 298.688 69.372 229.32 100.498L229.32 100.499C204.972 111.405 178.725 118.234 152.419 124.863C126.099 131.496 99.7229 137.927 75.0428 148.035C32.7091 165.393 11.085 189.908 -0.149407 219.654C-11.4008 249.446 -12.2485 284.517 -12.9211 323.045C-13.484 355.487 -17.5123 389.36 -36.8736 415.806L380.412 527.617L608.676 -324.274Z" stroke="#E6DEF4"/>
</g>
</g>
<defs>
<clipPath id="clip0_437_16007">
<rect width="150" height="200" fill="white"/>
</clipPath>
<clipPath id="clip1_437_16007">
<rect width="883" height="449" fill="white" transform="matrix(0.258819 -0.965926 -0.965926 -0.258819 417 393)"/>
</clipPath>
</defs>
</svg>
