<svg width="230" height="120" viewBox="0 0 230 120" fill="none" xmlns="http://www.w3.org/2000/svg">
<g clip-path="url(#clip0_437_17034)">
<g clip-path="url(#clip1_437_17034)">
<path d="M541.539 -183.83C480.311 -215.855 399.379 -197.894 365.899 -144.887L365.898 -144.886C358.334 -132.915 353.09 -119.752 348.414 -106.253C343.745 -92.7743 339.63 -78.9225 334.345 -65.677C317.337 -23.0391 281.585 3.10313 233.851 10.1875L232.721 10.3518C215.773 12.7395 198.384 12.2767 181.011 11.6807C163.623 11.0843 146.253 10.3552 129.275 12.1888C100.169 15.3432 82.5434 26.5685 70.3699 42.8417C58.93 58.1343 52.2831 77.9084 45.5091 99.7733L44.1509 104.173C38.0594 123.971 29.5884 144.072 13.0548 156.955L249.715 299.767L541.539 -183.83Z" stroke="#B6B0D6"/>
<path d="M521.671 -150.909C460.443 -182.934 379.512 -164.973 346.031 -111.966L346.031 -111.965C338.466 -99.994 333.223 -86.8312 328.547 -73.3328C323.877 -59.8536 319.763 -46.0019 314.478 -32.7564C297.469 9.88157 261.718 36.0238 213.984 43.1081L212.854 43.2724C195.906 45.6602 178.517 45.1973 161.144 44.6014C143.755 44.005 126.385 43.2759 109.408 45.1095C80.3023 48.2639 62.6762 59.4892 50.5027 75.7624C39.0628 91.055 32.4159 110.829 25.6419 132.694L24.2837 137.094C18.1922 156.891 9.72119 176.993 -6.81238 189.876L229.848 332.687L521.671 -150.909Z" stroke="#B6B0D6"/>
<path d="M498.496 -112.502C437.268 -144.527 356.336 -126.566 322.856 -73.5591L322.855 -73.5582C315.291 -61.5868 310.047 -48.424 305.371 -34.9255C300.702 -21.4464 296.587 -7.59462 291.302 5.65084C274.294 48.2888 238.542 74.431 190.808 81.5154L189.678 81.6796C172.73 84.0674 155.341 83.6045 137.968 83.0086C120.58 82.4122 103.21 81.6831 86.232 83.5167C57.1265 86.6711 39.5005 97.8964 27.3269 114.17C15.887 129.462 9.24013 149.236 2.46612 171.101L1.10795 175.501C-4.98354 195.298 -13.4546 215.4 -29.9882 228.283L206.672 371.095L498.496 -112.502Z" stroke="#B6B0D6"/>
</g>
</g>
<defs>
<clipPath id="clip0_437_17034">
<rect width="230" height="120" fill="white"/>
</clipPath>
<clipPath id="clip1_437_17034">
<rect width="565.857" height="287.735" fill="white" transform="matrix(0.516663 -0.856189 -0.856189 -0.516663 253.195 294.966)"/>
</clipPath>
</defs>
</svg>
