<svg width="288" height="236" viewBox="0 0 288 236" fill="none" xmlns="http://www.w3.org/2000/svg">
<g clip-path="url(#clip0_437_15258)">
<path d="M605.857 512.096C639.951 410.514 574.871 281.564 464.008 231.57L462.697 230.983C437.475 219.783 410.99 212.462 384.126 206.095C357.294 199.736 330.02 194.316 303.386 186.941C217.045 163.036 153.93 106.739 121.743 28.9275L121.743 28.9262C110.469 1.61919 104.293 -26.6627 98.3739 -54.9147C92.4488 -83.1928 86.7812 -111.432 76.5338 -138.804C58.9502 -185.716 31.0655 -213.327 -4.01203 -231.638C-39.1507 -249.98 -81.5156 -258.999 -128.118 -268.652C-167.208 -276.746 -207.783 -288.667 -238.264 -314.316L-406.627 82.3218L605.857 512.096Z" stroke="white" stroke-width="2"/>
<path d="M536.819 482.79C570.913 381.208 505.833 252.258 394.969 202.264L393.659 201.678C368.437 190.477 341.951 183.156 315.088 176.789C288.256 170.43 260.982 165.01 234.348 157.635C148.007 133.73 84.8921 77.4331 52.7053 -0.378212L52.7048 -0.379492C41.4308 -27.6865 35.2554 -55.9684 29.3358 -84.2204C23.4107 -112.498 17.7432 -140.738 7.49575 -168.109C-10.0878 -215.021 -37.9726 -242.633 -73.0501 -260.943C-108.189 -279.286 -150.554 -288.305 -197.156 -297.958C-236.246 -306.051 -276.821 -317.973 -307.303 -343.622L-475.665 53.0161L536.819 482.79Z" stroke="white" stroke-width="2"/>
<path d="M456.735 448.797C490.829 347.215 425.749 218.265 314.885 168.271L313.575 167.685C288.353 156.484 261.867 149.163 235.004 142.796C208.172 136.437 180.898 131.017 154.264 123.642C67.9227 99.7372 4.80807 43.4399 -27.3787 -34.3714L-27.3792 -34.3727C-38.6532 -61.6796 -44.8286 -89.9615 -50.7482 -118.214C-56.6733 -146.492 -62.3408 -174.731 -72.5882 -202.102C-90.1718 -249.014 -118.057 -276.626 -153.134 -294.936C-188.273 -313.279 -230.638 -322.298 -277.24 -331.951C-316.33 -340.044 -356.905 -351.966 -387.387 -377.615L-555.749 19.023L456.735 448.797Z" stroke="white" stroke-width="2"/>
</g>
<defs>
<clipPath id="clip0_437_15258">
<rect width="523" height="224" fill="white" transform="matrix(0.920505 0.390731 0.390731 -0.920505 -61 128)"/>
</clipPath>
</defs>
</svg>
