<svg width="400" height="224" viewBox="0 0 400 224" fill="none" xmlns="http://www.w3.org/2000/svg">
<g clip-path="url(#clip0_437_20301)">
<path d="M0.545898 -54.9399C4.23059 5.2753 53.7738 57.6444 108.05 58.7603C120.316 59.0148 132.428 56.9963 144.54 54.4009C156.632 51.8098 168.761 48.6334 180.961 46.6069C220.564 40.0262 256.252 55.2725 282.973 88.3374C292.34 99.9439 299.787 113.167 307.126 126.434C314.242 139.299 321.256 152.202 329.835 163.788L330.671 164.905C346.039 185.244 362.249 193.351 379.759 195.11C397.317 196.873 416.219 192.261 437 187.039C454.393 182.665 473.09 179.924 490.055 186.44V-54.9399H0.545898Z" stroke="#B6B0D6"/>
<path d="M33.8799 -54.9399C37.5646 5.2753 87.1078 57.6444 141.384 58.7603C153.649 59.0148 165.762 56.9963 177.874 54.4009C189.966 51.8098 202.095 48.6334 214.295 46.6069C253.898 40.0262 289.586 55.2725 316.307 88.3374C325.674 99.9439 333.121 113.167 340.46 126.434C347.576 139.299 354.59 152.202 363.169 163.788L364.005 164.905C379.373 185.244 395.583 193.351 413.093 195.11C430.651 196.873 449.553 192.261 470.334 187.039C487.727 182.665 506.424 179.924 523.389 186.44V-54.9399H33.8799Z" stroke="#B6B0D6"/>
<path d="M72.7686 -54.9399C76.4532 5.2753 125.996 57.6444 180.272 58.7603C192.538 59.0148 204.651 56.9963 216.763 54.4009C228.854 51.8098 240.984 48.6334 253.184 46.6069C292.786 40.0262 328.475 55.2725 355.195 88.3374C364.562 99.9439 372.01 113.167 379.349 126.434C386.465 139.299 393.479 152.202 402.058 163.788L402.894 164.905C418.262 185.244 434.472 193.351 451.981 195.11C469.54 196.873 488.442 192.261 509.223 187.039C526.616 182.665 545.313 179.924 562.277 186.44V-54.9399H72.7686Z" stroke="#B6B0D6"/>
</g>
<defs>
<clipPath id="clip0_437_20301">
<rect width="400" height="224" fill="white" transform="matrix(-1 0 0 1 400 0)"/>
</clipPath>
</defs>
</svg>
