<svg width="362" height="96" viewBox="0 0 362 96" fill="none" xmlns="http://www.w3.org/2000/svg">
<g clip-path="url(#clip0_570_32683)">
<path d="M776.375 -235.263C684.141 -291.572 555.948 -271.809 498.307 -192.439C485.299 -174.535 475.794 -154.543 467.147 -133.99C458.507 -113.456 450.71 -92.3229 441.146 -72.2378C410.401 -7.66064 352.185 29.3863 277.225 35.5895L275.451 35.7306C248.847 37.735 221.838 35.2609 194.842 32.578C168.675 29.9774 142.523 27.1807 116.688 28.0463L114.189 28.1422C68.4767 30.1175 39.8209 45.8492 19.1656 70.0249C-1.52105 94.2373 -14.2096 126.945 -27.9061 162.963C-39.4361 193.294 -54.7118 223.795 -81.894 242.11L272.773 488.792L776.375 -235.263Z" stroke="#B6B0D6"/>
<path d="M742.113 -186.005C649.88 -242.314 521.686 -222.552 464.045 -143.182C451.038 -125.278 441.532 -105.286 432.885 -84.733C424.245 -64.1985 416.448 -43.0658 406.884 -22.9807C376.14 41.5964 317.923 78.6434 242.964 84.8466L241.19 84.9877C214.585 86.9921 187.577 84.518 160.58 81.835C134.414 79.2345 108.261 76.4378 82.4265 77.3034L79.9272 77.3993C34.215 79.3746 5.55922 95.1063 -15.0961 119.282C-35.7828 143.494 -48.4714 176.202 -62.1678 212.22C-73.6978 242.551 -88.9735 273.052 -116.156 291.367L238.512 538.049L742.113 -186.005Z" stroke="#B6B0D6"/>
<path d="M702.144 -128.539C609.911 -184.848 481.717 -165.085 424.077 -85.7152C411.069 -67.8108 401.564 -47.8195 392.916 -27.2662C384.277 -6.73167 376.48 14.401 366.916 34.4861C336.171 99.0632 277.954 136.11 202.995 142.313L201.221 142.454C174.617 144.459 147.608 141.985 120.612 139.302C94.4449 136.701 68.2925 133.905 42.4578 134.77L39.9584 134.866C-5.75379 136.841 -34.4095 152.573 -55.0648 176.749C-75.7515 200.961 -88.4401 233.668 -102.137 269.687C-113.667 300.018 -128.942 330.519 -156.124 348.834L198.543 595.516L702.144 -128.539Z" stroke="#B6B0D6"/>
</g>
<defs>
<clipPath id="clip0_570_32683">
<rect width="362" height="96" fill="white"/>
</clipPath>
</defs>
</svg>
