<svg width="14" height="18" viewBox="0 0 14 18" fill="none" xmlns="http://www.w3.org/2000/svg">
<path d="M6.93333 8.48987C9.2898 8.48987 11.1999 6.58927 11.1999 4.24493C11.1999 1.9006 9.29067 0 6.93333 0C4.576 0 2.66673 1.9006 2.66673 4.24493C2.66673 6.58927 4.576 8.48987 6.93333 8.48987ZM9.15547 10.2587H4.7112C2.13373 10.2587 0 12.3812 0 14.9457C0 15.5645 0.266933 16.0957 0.799933 16.3609C1.59987 16.8029 3.3774 17.3333 6.93333 17.3333C10.4893 17.3333 12.2668 16.8029 13.0667 16.3609C13.3094 16.2125 13.5102 16.0047 13.6502 15.757C13.7902 15.5094 13.8647 15.2301 13.8667 14.9457C13.8667 12.2928 11.7338 10.2587 9.15547 10.2587Z" fill="#F7F4FF"/>
</svg>
